<?xml version="1.0" standalone="no"?>
<!DOCTYPE svg PUBLIC "-//W3C//DTD SVG 20010904//EN"
 "http://www.w3.org/TR/2001/REC-SVG-20010904/DTD/svg10.dtd">
<svg version="1.0" xmlns="http://www.w3.org/2000/svg"
 width="700.000000pt" height="700.000000pt" viewBox="0 0 700.000000 700.000000"
 preserveAspectRatio="xMidYMid meet">
<metadata>
Created by potrace 1.14, written by Peter Selinger 2001-2017
</metadata>
<g transform="translate(0.000000,700.000000) scale(0.100000,-0.100000)"
fill="#000000" stroke="none">
<path d="M3278 6982 c-22 -3 -28 -9 -28 -26 0 -13 7 -29 16 -36 20 -18 47 8
42 41 -2 20 -8 23 -30 21z"/>
<path d="M3360 6975 c0 -22 59 -65 90 -65 35 0 82 17 92 33 22 34 -9 51 -38
22 -20 -19 -63 -19 -84 0 -24 21 -60 27 -60 10z"/>
<path d="M3030 6972 c-23 -8 -30 -24 -19 -44 12 -22 35 -24 43 -3 4 13 9 12
34 -2 18 -10 38 -14 55 -9 26 6 67 42 67 58 0 15 -53 8 -72 -9 -16 -14 -22
-14 -46 -3 -34 17 -43 18 -62 12z"/>
<path d="M3722 6960 c17 -26 68 -50 108 -50 34 0 79 20 98 43 10 12 7 15 -18
19 -16 2 -35 1 -42 -4 -18 -11 -76 -10 -83 2 -3 6 -22 10 -41 10 -32 0 -33 -1
-22 -20z"/>
<path d="M2874 6954 c-18 -8 -33 -9 -40 -3 -16 13 -59 5 -59 -12 0 -8 17 -18
39 -24 30 -7 44 -6 67 7 24 14 30 14 40 2 24 -29 56 -11 44 26 -7 23 -41 24
-91 4z"/>
<path d="M4000 6955 c0 -27 13 -45 30 -45 19 0 36 32 26 49 -9 13 -56 10 -56
-4z"/>
<path d="M4175 6950 c-8 -13 25 -41 44 -38 26 5 18 31 -11 39 -16 4 -30 4 -33
-1z"/>
<path d="M2673 6943 c-31 -6 -29 -21 3 -29 30 -8 77 5 78 21 1 11 -45 15 -81
8z"/>
<path d="M4297 6929 c7 -7 42 -13 87 -14 42 -1 73 1 71 4 -7 6 -20 8 -105 17
-52 5 -63 4 -53 -7z"/>
<path d="M2144 6848 c-4 -6 -29 -66 -55 -132 -35 -91 -44 -126 -37 -139 12
-24 30 -17 48 19 8 16 19 32 23 35 7 5 50 5 104 0 7 -1 15 -12 19 -26 9 -38
32 -52 51 -32 15 15 13 26 -33 138 -27 67 -55 128 -62 136 -17 16 -48 17 -58
1z m55 -115 l21 -53 -44 0 -44 0 21 55 c11 31 21 54 23 53 1 -2 12 -27 23 -55z"/>
<path d="M2362 6848 c-16 -16 -17 -264 -1 -273 16 -10 179 -9 189 1 22 22 -9
38 -72 39 l-63 1 -2 100 c-2 54 -5 109 -8 122 -6 24 -24 29 -43 10z"/>
<path d="M2531 6852 c-6 -2 -11 -12 -11 -23 0 -19 22 -25 73 -20 15 2 17 -9
17 -117 0 -104 2 -121 17 -126 32 -13 43 21 43 135 l0 107 36 -1 c37 -2 68 23
51 40 -8 7 -206 12 -226 5z"/>
<path d="M2806 6844 c-13 -12 -16 -258 -4 -270 4 -3 50 -6 103 -7 74 0 99 3
106 14 15 23 -16 37 -80 34 -32 -1 -63 0 -68 4 -10 6 -13 70 -4 72 3 1 34 2
68 3 68 3 79 7 70 31 -5 11 -22 15 -75 15 l-69 0 0 35 0 35 74 0 c57 0 75 3
80 15 3 9 3 19 -1 22 -12 12 -188 9 -200 -3z"/>
<path d="M3076 6848 c-13 -8 -16 -31 -16 -142 0 -119 2 -134 18 -138 34 -9 42
2 42 63 0 56 1 59 25 59 18 0 33 -11 53 -41 51 -76 66 -91 85 -84 9 4 17 13
17 21 0 17 -44 89 -60 99 -7 5 -1 14 18 25 49 30 49 105 0 131 -26 14 -160 19
-182 7z m154 -64 c12 -32 -2 -44 -58 -51 l-52 -6 0 42 0 42 51 -3 c42 -2 53
-7 59 -24z"/>
<path d="M3434 6845 c-22 -16 -2 -34 41 -37 l40 -3 1 -105 c2 -133 1 -127 19
-134 31 -12 41 18 39 123 -1 109 2 116 51 119 37 3 53 18 37 35 -16 15 -208
17 -228 2z"/>
<path d="M3756 6838 c-22 -34 -96 -225 -96 -248 0 -44 41 -35 58 14 12 32 14
33 65 31 28 -2 55 -3 59 -4 4 -1 10 -10 13 -21 15 -46 65 -62 65 -20 0 19 -87
236 -103 258 -15 19 -45 14 -61 -10z m57 -110 l16 -48 -40 0 c-21 0 -39 3 -39
6 0 19 36 102 41 96 3 -4 13 -28 22 -54z"/>
<path d="M3993 6852 c-13 -2 -24 -6 -24 -10 -5 -27 -3 -255 2 -264 4 -7 39
-11 90 -10 65 1 89 6 109 20 34 26 39 83 10 112 -19 19 -19 22 -5 43 8 12 15
31 15 42 0 26 -34 65 -58 66 -45 4 -119 4 -139 1z m126 -51 c9 -6 11 -18 7
-35 -6 -23 -12 -26 -46 -26 -22 0 -43 -1 -47 -2 -5 -2 -9 14 -10 35 l-1 37 41
0 c23 0 48 -4 56 -9z m11 -116 c18 -11 11 -54 -10 -65 -12 -6 -38 -10 -58 -8
-33 3 -37 6 -39 33 -1 17 0 35 2 41 4 12 85 11 105 -1z"/>
<path d="M4256 6844 c-9 -25 -7 -247 3 -263 7 -11 31 -14 97 -13 90 1 109 7
94 32 -6 9 -28 15 -67 16 -32 1 -61 2 -65 3 -5 0 -8 52 -8 115 0 95 -3 115
-16 120 -24 9 -31 7 -38 -10z"/>
<path d="M4519 6852 c-9 -2 -19 -13 -21 -25 -6 -35 -2 -246 5 -253 4 -4 50 -7
103 -7 71 0 98 4 105 14 14 23 -9 34 -74 35 -34 1 -67 2 -72 3 -11 1 -17 70
-6 72 3 1 34 2 69 3 68 3 78 7 69 31 -5 11 -22 15 -74 15 l-68 0 -1 35 -1 34
76 3 c68 3 76 5 76 23 0 18 -7 19 -85 20 -47 0 -92 -1 -101 -3z"/>
<path d="M4898 6826 c-10 -7 -25 -29 -33 -49 -41 -98 11 -201 105 -211 59 -5
105 14 125 54 31 61 -14 85 -50 27 -33 -51 -93 -49 -121 4 -29 57 3 159 51
159 8 0 15 5 15 10 0 6 -8 10 -17 10 -10 0 -27 2 -38 5 -11 3 -28 -1 -37 -9z"/>
<path d="M5016 6808 c12 -5 28 -21 35 -34 15 -30 54 -29 54 0 0 14 -12 22 -45
32 -53 16 -74 17 -44 2z"/>
<path d="M1858 6783 c-13 -3 -16 -11 -11 -36 3 -18 6 -34 5 -37 0 -40 -6 -55
-27 -75 -55 -55 -129 -10 -134 82 -1 9 -9 9 -30 2 -26 -9 -28 -14 -24 -42 10
-71 60 -111 138 -111 58 -1 97 19 119 62 19 36 25 90 14 130 -8 31 -15 34 -50
25z"/>
<path d="M5160 6681 c0 -110 7 -129 39 -112 17 10 21 21 21 66 0 41 4 55 14
55 29 0 46 -13 77 -61 27 -43 55 -69 72 -69 3 0 8 7 11 16 7 18 -17 68 -47
102 -11 12 -15 22 -9 22 7 0 12 4 12 10 0 13 -46 24 -91 22 -28 -1 -38 3 -42
17 -2 10 -16 20 -31 23 l-26 5 0 -96z"/>
<path d="M5450 6630 c0 -27 5 -52 11 -56 15 -9 197 -9 206 0 12 11 -82 44
-119 41 -31 -2 -38 1 -38 15 0 19 -14 33 -42 43 -16 6 -18 0 -18 -43z"/>
<path d="M1490 6657 c-20 -10 -25 -19 -23 -46 1 -19 6 -38 11 -43 13 -13 42 1
43 21 0 9 2 26 3 38 4 35 -6 44 -34 30z"/>
<path d="M1301 6576 c-10 -12 -9 -14 5 -12 10 2 20 8 22 14 5 17 -13 15 -27
-2z"/>
<path d="M1128 6495 c-34 -19 -36 -29 -34 -158 1 -110 9 -133 43 -120 13 5 17
27 15 91 -1 28 2 32 24 32 29 0 41 -10 73 -65 13 -22 31 -45 39 -52 18 -15 42
-6 42 16 0 19 -36 81 -57 98 -13 10 -10 14 15 27 51 27 51 110 -1 133 -36 16
-129 14 -159 -2z m136 -58 c16 -26 -14 -49 -66 -51 -43 -1 -43 -1 -44 36 -2
33 1 37 25 40 38 5 73 -5 85 -25z"/>
<path d="M1400 6500 c-12 -7 -15 -35 -16 -132 -1 -68 3 -129 9 -135 14 -19
191 -18 206 1 18 22 -4 31 -79 32 -36 1 -68 2 -72 3 -5 1 -7 19 -6 41 l1 39
71 3 c55 2 71 6 71 18 0 11 -17 16 -69 20 l-70 5 -3 33 c-3 21 0 32 9 33 7 0
36 0 63 0 28 0 58 3 68 5 21 7 22 30 1 38 -25 10 -167 7 -184 -4z"/>
<path d="M1733 6498 c-12 -14 -103 -243 -103 -258 0 -5 9 -14 20 -20 17 -9 22
-5 40 30 20 39 21 40 76 40 52 0 56 -2 66 -30 13 -40 44 -57 57 -33 7 13 -4
52 -43 148 -46 115 -55 130 -77 133 -14 2 -31 -3 -36 -10z m60 -140 c7 -26 6
-27 -33 -26 -22 0 -40 2 -40 3 0 1 6 18 14 36 7 19 16 43 20 54 7 18 9 17 20
-10 7 -16 16 -42 19 -57z"/>
<path d="M1887 6503 c-4 -3 -7 -15 -7 -25 0 -15 8 -18 45 -18 l45 0 0 -114 c0
-118 9 -145 40 -126 18 11 17 5 19 135 l1 105 40 0 c43 0 66 24 39 41 -16 10
-212 12 -222 2z"/>
<path d="M2162 6493 c-11 -22 -10 -243 1 -260 13 -20 203 -18 210 2 9 23 -12
30 -88 30 l-70 1 0 39 0 40 65 3 c36 2 69 7 75 13 18 18 -14 31 -77 30 l-64
-1 -2 35 -3 35 65 0 c72 0 96 6 96 25 0 20 -24 25 -115 25 -70 0 -86 -3 -93
-17z"/>
<path d="M2539 6500 c-13 -8 -16 -30 -16 -127 -1 -65 3 -126 9 -135 7 -15 22
-18 76 -18 107 0 153 38 158 131 4 61 -15 111 -51 135 -30 20 -151 30 -176 14z
m147 -61 c27 -30 27 -121 -1 -148 -18 -17 -53 -25 -92 -22 -10 1 -13 27 -13
96 l0 95 43 0 c32 0 49 -6 63 -21z"/>
<path d="M2881 6492 c-15 -28 -93 -225 -96 -244 -2 -10 4 -22 15 -28 20 -11
33 0 49 43 10 25 15 27 66 27 54 0 55 -1 75 -40 18 -35 23 -39 40 -30 11 6 20
15 20 20 0 12 -76 203 -96 241 -17 34 -58 40 -73 11z m68 -143 c1 -12 -9 -16
-39 -17 l-40 -2 20 50 c11 28 20 54 21 58 1 12 37 -72 38 -89z"/>
<path d="M3041 6501 c-26 -17 -4 -41 39 -41 l40 0 0 -109 c0 -87 3 -113 16
-126 12 -12 19 -13 30 -4 10 9 14 40 14 125 l0 113 43 3 c34 2 42 7 42 23 0
19 -8 20 -105 23 -58 1 -111 -2 -119 -7z"/>
<path d="M3363 6498 c-6 -7 -32 -69 -58 -137 -45 -117 -47 -125 -30 -137 23
-17 32 -11 50 32 14 33 16 34 69 34 54 0 56 -1 70 -34 17 -42 28 -49 51 -32
16 12 14 21 -36 147 -48 120 -57 134 -80 137 -14 2 -30 -3 -36 -10z m63 -142
c6 -24 4 -26 -28 -26 -45 0 -49 5 -34 43 7 18 17 41 21 52 7 18 9 17 21 -11 7
-17 16 -43 20 -58z"/>
<path d="M3583 6499 c-14 -14 -19 -232 -7 -263 5 -13 22 -16 85 -16 88 0 122
11 138 47 17 37 13 59 -13 84 -22 21 -23 26 -10 40 27 29 25 59 -4 88 -24 24
-36 27 -102 30 -50 1 -79 -2 -87 -10z m155 -54 c3 -3 0 -16 -6 -30 -10 -21
-18 -25 -57 -25 -45 0 -45 0 -45 34 0 28 4 35 23 38 22 4 75 -7 85 -17z m-5
-110 c21 -9 22 -38 1 -56 -8 -7 -35 -13 -60 -14 l-44 -2 0 44 0 44 43 -4 c23
-2 50 -7 60 -12z"/>
<path d="M3920 6490 c-6 -11 -31 -72 -56 -137 -43 -109 -45 -118 -29 -130 23
-16 34 -9 51 33 14 33 16 34 69 34 54 0 55 -1 75 -40 18 -35 23 -39 40 -30 11
6 20 15 20 20 0 14 -91 243 -103 258 -15 19 -55 14 -67 -8z m70 -142 c0 -13
-8 -18 -29 -18 -41 0 -45 13 -25 67 l18 47 18 -40 c10 -21 18 -47 18 -56z"/>
<path d="M4173 6500 c-41 -17 -56 -77 -28 -113 7 -10 40 -27 71 -37 32 -9 63
-25 69 -34 27 -44 -58 -77 -92 -35 -39 46 -45 50 -58 39 -32 -26 9 -86 67 -99
80 -18 148 21 148 85 0 44 -29 70 -101 90 -59 17 -78 36 -58 60 20 25 65 17
91 -16 21 -27 26 -29 42 -17 25 18 13 53 -24 72 -32 16 -93 19 -127 5z"/>
<path d="M4412 6498 c-14 -14 -17 -245 -4 -266 6 -9 35 -12 108 -10 91 3 99 5
99 23 0 18 -7 20 -78 20 l-77 0 0 43 0 42 68 0 c73 0 84 4 75 26 -4 10 -24 14
-74 14 l-69 0 0 35 0 35 53 1 c28 1 59 1 67 0 8 0 21 3 29 8 12 8 12 12 2 25
-17 20 -180 23 -199 4z"/>
<path d="M4803 6498 c-12 -6 -27 -23 -33 -37 -22 -54 16 -98 98 -116 32 -7 62
-28 62 -45 0 -18 -33 -40 -60 -40 -21 0 -36 9 -55 34 -29 38 -55 38 -55 1 0
-28 45 -74 74 -76 83 -6 129 11 145 55 21 54 -16 106 -89 121 -51 11 -70 23
-70 45 0 12 9 22 24 26 34 8 61 -2 80 -31 19 -29 46 -23 46 10 0 36 -44 65
-99 64 -25 0 -56 -5 -68 -11z"/>
<path d="M5089 6496 c-44 -25 -63 -64 -63 -133 -1 -47 4 -68 20 -90 35 -47
109 -71 161 -52 16 6 32 3 56 -11 23 -14 37 -16 47 -9 13 8 11 13 -13 32 -26
22 -27 24 -12 53 18 36 21 109 7 144 -20 49 -58 73 -120 77 -37 2 -66 -2 -83
-11z m109 -40 c28 -9 42 -43 42 -99 0 -62 -10 -73 -48 -53 -17 9 -33 16 -37
16 -11 0 -4 -24 12 -42 15 -17 15 -18 -6 -18 -12 0 -35 13 -51 29 -25 24 -28
35 -26 79 2 53 17 79 51 92 22 8 28 8 63 -4z"/>
<path d="M5356 6495 c-12 -31 -7 -250 6 -263 18 -18 184 -16 191 2 10 24 -16
36 -80 36 l-62 0 -3 118 c-3 111 -4 117 -24 120 -13 2 -24 -4 -28 -13z"/>
<path d="M5702 6493 c-6 -14 -9 -233 -3 -264 0 -4 10 -9 22 -12 25 -7 31 7 33
76 l1 52 63 2 62 2 0 -59 c0 -48 4 -61 19 -69 31 -17 40 7 39 112 0 88 -2 99
-21 112 -31 22 -37 19 -37 -18 l0 -33 -62 1 -63 1 0 45 c-1 24 -4 50 -8 57
-12 18 -35 15 -45 -5z"/>
<path d="M1010 6425 c-7 -9 -10 -18 -7 -21 10 -11 37 5 37 21 0 19 -14 19 -30
0z"/>
<path d="M6011 6329 c-33 -76 -36 -96 -11 -109 19 -10 23 -8 37 29 15 39 18
41 57 41 39 1 40 2 21 16 -11 8 -27 20 -35 27 -54 42 -49 43 -69 -4z"/>
<path d="M1000 6318 c-12 -13 -28 -30 -36 -39 -23 -25 -73 -18 -98 13 -20 26
-22 26 -44 10 l-23 -18 23 -26 c51 -58 160 -56 202 3 18 26 21 65 6 74 -5 3
-19 -5 -30 -17z"/>
<path d="M6195 6230 c3 -5 8 -10 11 -10 2 0 4 5 4 10 0 6 -5 10 -11 10 -5 0
-7 -4 -4 -10z"/>
<path d="M1046 6171 c-3 -4 -3 -18 -1 -31 3 -17 0 -21 -13 -17 -9 2 -23 6 -31
8 -29 8 -22 -22 9 -32 l31 -11 -20 -20 c-24 -22 -26 -34 -7 -41 8 -3 19 5 26
19 16 29 27 31 35 4 3 -11 15 -20 26 -20 24 0 24 8 -2 36 l-20 22 30 10 c17 6
31 16 31 21 0 15 -43 14 -59 -1 -10 -11 -12 -8 -11 12 1 14 2 31 1 38 -1 14
-17 16 -25 3z"/>
<path d="M4806 6171 c-3 -4 -3 -18 -1 -31 3 -17 0 -21 -13 -17 -9 2 -23 6 -31
8 -29 8 -22 -22 8 -32 30 -11 30 -11 11 -32 -22 -23 -25 -33 -10 -42 5 -3 17
6 26 21 l18 26 17 -21 c16 -20 49 -29 49 -14 0 4 -9 17 -21 29 l-20 22 30 10
c44 15 40 36 -5 29 -29 -5 -35 -3 -33 11 2 29 -1 42 -10 42 -6 0 -12 -4 -15
-9z"/>
<path d="M907 6138 c-56 -73 -67 -186 -27 -276 11 -24 20 -46 20 -47 0 -2 -32
-3 -72 -4 -45 -1 -75 -6 -80 -13 -11 -18 -10 -240 1 -257 7 -11 34 -14 108
-15 94 -1 98 0 101 22 3 21 1 22 -77 22 l-81 0 0 40 c0 44 -2 43 81 40 31 -1
50 4 59 15 19 23 0 34 -59 33 -81 -1 -81 -1 -81 36 l0 33 71 0 c81 0 98 10 75
45 -44 67 -52 197 -17 289 25 64 13 84 -22 37z"/>
<path d="M1170 6163 c0 -5 10 -36 21 -68 17 -49 20 -75 16 -140 -6 -98 -28
-155 -56 -148 -21 5 -32 -7 -36 -43 -1 -14 -10 -31 -20 -38 -17 -12 -17 -14 2
-27 16 -11 19 -25 18 -77 0 -39 5 -71 13 -83 16 -23 74 -26 92 -4 15 19 6 30
-23 30 -20 0 -22 6 -25 63 -3 57 -1 64 18 69 26 7 26 33 0 33 -27 0 -29 55 -2
62 17 5 59 78 68 120 12 59 5 130 -19 182 -22 47 -67 93 -67 69z"/>
<path d="M1490 6162 c-38 -10 -60 -27 -69 -54 -17 -49 15 -89 89 -108 70 -19
87 -42 54 -74 -31 -32 -78 -15 -109 38 -13 22 -45 11 -45 -16 0 -11 14 -33 30
-50 29 -28 35 -30 91 -26 70 5 101 29 105 81 4 46 -22 72 -90 92 -64 19 -85
38 -66 60 20 24 66 19 88 -10 24 -30 48 -32 55 -5 6 22 -36 69 -62 71 -9 0
-25 2 -36 3 -12 1 -27 1 -35 -2z"/>
<path d="M1887 6159 c-14 -8 -17 -25 -17 -109 0 -86 -3 -103 -19 -119 -14 -14
-29 -18 -48 -15 -47 9 -53 22 -56 134 l-2 105 -28 3 c-27 3 -27 2 -28 -55 -3
-165 5 -197 51 -220 34 -17 105 -16 139 2 39 20 51 61 51 170 0 99 -10 122
-43 104z"/>
<path d="M2392 6163 c-22 -8 -63 -103 -69 -158 -9 -90 49 -233 86 -211 8 5 9
12 2 20 -6 7 -18 41 -27 76 -19 74 -14 144 15 220 19 50 17 61 -7 53z"/>
<path d="M2732 6158 c-7 -7 -12 -31 -12 -54 l0 -43 -32 13 c-34 14 -46 13 -85
-6 -28 -14 -36 -32 -38 -89 -2 -35 2 -53 19 -72 20 -24 23 -24 56 -12 19 8 27
14 17 14 -26 1 -50 63 -37 95 14 38 43 50 70 28 24 -20 30 -45 19 -85 -7 -26
-6 -27 19 -21 15 4 30 9 35 11 13 8 8 210 -6 222 -10 8 -17 7 -25 -1z"/>
<path d="M2826 6162 c-3 -5 3 -34 14 -65 11 -31 20 -72 20 -92 0 -31 3 -35 25
-35 22 0 25 4 25 38 0 61 -66 182 -84 154z"/>
<path d="M3125 6155 c-36 -13 -54 -28 -56 -50 0 -5 -2 -18 -4 -27 -2 -9 8 -29
22 -43 22 -21 34 -25 77 -24 28 1 60 5 71 9 16 6 9 11 -35 24 -74 22 -84 29
-75 55 10 31 67 29 93 -4 24 -30 48 -32 55 -5 6 22 -36 70 -62 71 -9 0 -23 2
-32 4 -8 1 -33 -3 -54 -10z"/>
<path d="M3612 6153 c-5 -10 -10 -44 -10 -76 0 -52 2 -58 24 -63 14 -4 27 -5
29 -3 4 4 7 70 6 111 -1 35 -36 57 -49 31z"/>
<path d="M4179 6147 c-50 -24 -79 -79 -74 -139 6 -72 21 -94 82 -117 30 -12
66 -21 80 -21 31 0 93 60 93 89 0 29 -30 40 -44 17 -39 -65 -80 -79 -124 -41
-23 20 -27 30 -26 81 1 50 5 61 29 81 35 31 69 25 108 -19 26 -31 28 -31 44
-15 16 16 16 20 3 45 -30 53 -107 71 -171 39z"/>
<path d="M5659 6160 c-69 -20 -98 -58 -101 -137 -4 -94 49 -153 136 -153 60 0
92 16 118 59 29 45 30 134 4 174 -31 47 -101 72 -157 57z m97 -73 c41 -48 15
-161 -38 -169 -57 -9 -98 27 -100 87 -1 55 2 66 26 90 32 32 81 28 112 -8z"/>
<path d="M620 6138 l-25 -23 40 -5 40 -5 -1 -105 c-1 -120 1 -130 26 -130 29
0 33 16 31 131 l-1 109 38 0 c41 0 63 15 55 36 -4 10 -27 14 -92 14 -77 0 -90
-3 -111 -22z"/>
<path d="M1997 6153 c-4 -3 -7 -66 -7 -140 0 -115 2 -135 16 -140 29 -11 39
20 38 115 -1 51 0 92 1 92 2 0 13 -42 25 -92 25 -102 33 -118 62 -118 22 0 23
2 54 118 23 89 27 85 24 -25 -1 -29 1 -62 5 -73 8 -25 42 -26 49 -2 9 32 4
247 -6 260 -13 16 -63 16 -76 -1 -6 -7 -18 -44 -28 -82 -9 -39 -20 -73 -23
-78 -4 -4 -15 26 -26 65 -25 100 -30 108 -69 108 -18 0 -36 -3 -39 -7z"/>
<path d="M2467 6146 c-10 -25 33 -50 47 -27 10 16 -5 41 -24 41 -10 0 -20 -6
-23 -14z"/>
<path d="M3346 6152 c-5 -9 -10 -81 -7 -113 1 -14 16 -17 101 -17 57 -1 100 3
100 8 0 11 -6 12 -77 14 -68 2 -73 7 -64 67 1 3 30 4 65 3 70 -2 92 6 83 30
-5 13 -23 16 -101 16 -52 0 -97 -4 -100 -8z"/>
<path d="M3853 6143 c-7 -19 -9 -150 -2 -157 11 -12 58 -14 56 -3 -1 8 20 13
66 15 50 2 70 7 74 18 9 23 -10 30 -77 29 -33 -1 -60 1 -61 4 0 3 -2 18 -4 34
-2 16 1 27 8 28 7 1 41 2 77 3 59 1 65 3 68 24 3 22 1 22 -98 22 -85 0 -102
-3 -107 -17z"/>
<path d="M4387 6146 c-8 -20 12 -34 53 -38 l35 -3 0 -105 c1 -109 6 -130 31
-130 23 0 30 34 29 141 l-1 99 32 0 c42 0 64 9 64 25 0 20 -25 25 -135 25 -80
0 -104 -3 -108 -14z"/>
<path d="M5042 6141 c-9 -25 -7 -245 2 -260 10 -15 43 -14 48 2 3 6 4 35 4 63
l-1 52 54 1 c30 0 59 5 64 10 18 18 -5 31 -59 31 -41 0 -54 4 -55 15 -2 19 -2
43 0 53 0 4 28 7 61 7 60 -1 89 13 75 35 -3 6 -44 10 -96 10 -80 0 -90 -2 -97
-19z"/>
<path d="M5284 6147 c-2 -7 -3 -71 -2 -143 l3 -129 25 0 c27 0 27 0 29 73 1
42 4 48 21 47 26 -2 55 -29 85 -81 27 -45 60 -59 71 -29 6 15 -44 105 -58 105
-5 0 -8 5 -8 10 0 6 6 10 13 10 23 0 48 36 49 71 1 24 -6 39 -26 56 -24 20
-37 23 -112 23 -60 0 -86 -4 -90 -13z m154 -41 c5 -3 12 -15 15 -26 7 -26 -34
-47 -80 -42 -31 3 -33 6 -33 41 l0 38 44 -2 c25 -2 49 -6 54 -9z"/>
<path d="M5893 6148 c-10 -16 -13 -253 -3 -268 4 -7 16 -10 26 -8 16 3 19 15
22 93 1 49 4 90 6 92 2 2 14 -37 26 -87 35 -142 69 -137 111 16 l27 99 -1 -97
c-1 -101 7 -126 38 -115 13 6 15 26 13 144 l-3 138 -37 3 c-44 4 -48 -2 -73
-105 -18 -77 -29 -85 -39 -29 -4 19 -13 57 -22 85 -14 48 -17 51 -49 51 -19 0
-37 -6 -42 -12z"/>
<path d="M6325 6102 c2 -14 -1 -22 -11 -22 -17 0 -18 -22 -2 -38 7 -7 13 -41
14 -77 0 -37 7 -71 14 -80 18 -22 94 -17 98 7 2 12 -5 17 -25 20 -27 3 -28 6
-31 62 -2 34 1 62 7 66 6 3 -6 22 -29 45 -33 32 -39 35 -35 17z"/>
<path d="M2471 6068 c-5 -13 -8 -61 -7 -108 2 -83 2 -85 26 -85 25 0 25 1 28
97 2 89 1 98 -18 108 -17 9 -22 7 -29 -12z"/>
<path d="M511 6037 c-11 -13 -21 -34 -21 -48 0 -16 -3 -20 -8 -11 -7 9 -13 8
-27 -8 -17 -19 -17 -21 9 -60 19 -29 33 -40 51 -40 14 0 26 3 26 8 6 35 5 173
-1 177 -4 2 -17 -6 -29 -18z"/>
<path d="M6450 5932 c0 -33 27 -62 58 -62 29 0 28 5 -9 51 -36 46 -49 49 -49
11z"/>
<path d="M328 5808 c-20 -16 -110 -243 -106 -266 6 -33 36 -25 56 15 19 37 21
38 73 38 52 -1 55 -2 72 -38 18 -38 37 -46 55 -24 7 8 -4 48 -40 137 -43 110
-67 150 -88 150 -3 0 -13 -6 -22 -12z m44 -115 c9 -26 15 -49 13 -52 -6 -5
-65 -4 -71 2 -5 5 29 97 36 97 3 0 13 -21 22 -47z"/>
<path d="M1493 5813 c-10 -4 -13 -42 -13 -144 0 -120 2 -140 16 -146 10 -4 22
0 28 9 10 14 14 14 31 2 49 -36 117 1 130 70 15 77 -21 131 -84 130 -22 -1
-48 -7 -56 -14 -13 -11 -15 -6 -15 38 0 49 -10 64 -37 55z m120 -125 c29 -22
23 -110 -8 -122 -23 -8 -65 11 -67 31 -3 42 4 69 24 86 24 20 29 21 51 5z"/>
<path d="M1734 5808 c-12 -19 -8 -268 4 -280 6 -6 18 -8 26 -5 13 5 16 28 16
136 0 71 -3 136 -6 145 -7 19 -30 21 -40 4z"/>
<path d="M2192 5808 c-7 -7 -12 -43 -12 -91 l0 -78 30 21 c27 19 30 26 30 79
0 50 -11 81 -30 81 -3 0 -11 -5 -18 -12z"/>
<path d="M2321 5811 c-8 -5 -15 -25 -16 -45 l-2 -35 38 20 c44 22 47 29 21 52
-21 20 -22 20 -41 8z"/>
<path d="M4499 5802 c-40 -21 -47 -37 -19 -52 16 -8 25 -7 42 5 31 21 63 19
94 -8 21 -18 27 -33 28 -69 1 -50 31 -97 49 -79 15 15 12 112 -4 145 -31 64
-123 92 -190 58z"/>
<path d="M4940 5805 c-6 -8 -34 -69 -60 -137 -36 -90 -46 -126 -38 -135 18
-22 36 -14 55 24 17 36 20 38 71 38 52 1 54 0 70 -34 19 -39 48 -52 58 -26 8
19 -80 247 -103 270 -18 19 -37 19 -53 0z m49 -112 l21 -53 -40 0 c-22 0 -40
3 -40 6 0 9 34 103 36 101 1 -1 12 -26 23 -54z"/>
<path d="M5152 5806 c-12 -15 -14 -247 -2 -266 12 -20 176 -22 192 -3 19 23
-5 35 -74 37 l-63 1 -3 117 c-2 105 -4 116 -22 121 -11 3 -23 0 -28 -7z"/>
<path d="M5630 5812 c-14 -2 -29 -9 -35 -16 -11 -14 -11 -253 -1 -264 4 -3 50
-7 102 -7 68 -1 98 3 106 12 19 23 -3 32 -81 35 l-74 3 -2 38 -1 37 50 1 c28
1 56 2 61 4 6 1 16 3 23 3 18 3 14 30 -5 36 -10 2 -31 4 -48 4 -86 -1 -83 -4
-76 65 1 5 16 8 34 7 89 -5 117 -1 117 19 0 17 -9 20 -72 23 -40 2 -84 2 -98
0z"/>
<path d="M6320 5812 c-52 -2 -98 -6 -102 -10 -14 -14 11 -35 44 -38 18 -1 37
-3 41 -3 5 -1 8 -31 7 -68 -3 -138 -1 -163 16 -170 30 -11 39 15 40 123 1 57
4 107 7 111 4 3 23 7 42 8 39 1 50 8 42 28 -7 20 -28 22 -137 19z"/>
<path d="M6557 5807 c-10 -7 -25 -34 -36 -62 -10 -27 -31 -83 -46 -122 -15
-40 -25 -80 -21 -88 10 -26 36 -16 53 20 9 19 19 35 22 36 3 0 28 1 55 2 46 2
49 1 67 -35 21 -41 42 -48 58 -21 10 18 -19 84 -96 215 -35 59 -42 66 -56 55z
m42 -104 c7 -21 15 -44 17 -50 4 -9 -6 -13 -35 -13 -23 0 -41 1 -41 3 0 15 34
97 39 97 4 0 13 -17 20 -37z"/>
<path d="M466 5802 c-10 -17 14 -37 46 -39 18 0 36 -2 39 -2 3 -1 6 -43 6 -93
1 -134 1 -138 19 -145 31 -11 40 21 39 131 -1 112 2 119 48 110 26 -4 53 18
42 36 -7 12 -231 14 -239 2z"/>
<path d="M5313 5795 c-8 -22 2 -29 45 -30 l37 -2 2 -99 c4 -123 8 -144 32
-144 27 0 31 18 31 136 0 76 3 104 13 105 15 2 48 6 65 7 6 1 12 11 12 22 0
19 -7 20 -115 20 -95 0 -117 -3 -122 -15z"/>
<path d="M5857 5788 c-3 -13 -4 -74 -4 -137 2 -96 5 -116 19 -125 27 -16 40 5
40 63 -1 85 37 81 99 -10 27 -40 46 -59 57 -57 30 6 25 43 -12 92 -23 30 -31
46 -22 46 27 0 58 52 52 85 -10 52 -37 65 -136 65 -83 0 -88 -1 -93 -22z m157
-34 c36 -35 7 -64 -64 -64 l-41 0 3 40 c2 40 2 40 44 40 25 0 49 -6 58 -16z"/>
<path d="M1283 5725 c-25 -10 -33 -20 -33 -40 0 -30 20 -33 45 -5 22 25 70 27
79 3 8 -20 -5 -29 -58 -37 -50 -9 -76 -31 -76 -67 0 -51 65 -75 120 -45 21 12
26 12 36 -2 6 -9 18 -13 28 -9 14 5 15 17 10 79 -7 100 -11 115 -31 123 -34
14 -88 14 -120 0z m93 -130 c-8 -30 -43 -47 -69 -33 -29 15 -16 41 28 54 22 6
42 10 44 8 2 -2 0 -15 -3 -29z"/>
<path d="M1883 5725 c-38 -16 -54 -43 -56 -94 -2 -65 43 -111 109 -111 32 0
80 25 88 45 9 24 -20 29 -51 8 -34 -23 -69 -19 -84 9 -14 26 -6 33 44 34 81 3
88 4 93 19 10 25 -16 75 -47 90 -34 18 -55 18 -96 0z m81 -47 c9 -12 14 -23
12 -25 -2 -2 -23 -5 -46 -6 -48 -2 -60 11 -35 37 23 22 51 20 69 -6z"/>
<path d="M167 5541 c-3 -14 -1 -18 9 -14 8 3 14 11 14 19 0 21 -17 17 -23 -5z"/>
<path d="M130 5460 c0 -5 -3 -15 -6 -24 -5 -13 1 -16 25 -16 28 0 52 22 40 35
-9 9 -59 13 -59 5z"/>
<path d="M322 5458 c-15 -19 -102 -239 -102 -259 0 -14 19 -29 36 -29 3 0 12
16 20 35 8 19 18 36 22 36 4 1 31 2 59 3 51 2 53 1 63 -30 12 -37 37 -51 56
-32 11 11 4 36 -37 137 -27 69 -54 130 -60 138 -14 16 -43 17 -57 1z m52 -115
c9 -26 16 -48 16 -50 0 -2 -18 -3 -40 -3 -22 0 -40 1 -40 3 0 15 34 97 40 97
4 0 15 -21 24 -47z"/>
<path d="M472 5454 c-24 -18 -4 -34 44 -37 l39 -3 1 -99 c2 -132 2 -132 17
-138 34 -13 41 10 42 124 l0 113 38 2 c45 2 67 18 49 36 -17 17 -208 18 -230
2z"/>
<path d="M753 5455 c-12 -9 -14 -33 -11 -137 1 -70 6 -129 9 -133 6 -5 79 -8
172 -6 30 1 37 5 37 21 0 23 5 22 -85 24 l-70 1 0 40 0 40 63 0 c34 1 67 6 73
12 22 22 -3 33 -72 33 l-69 0 0 35 0 35 74 0 c74 0 99 11 77 33 -15 15 -178
17 -198 2z"/>
<path d="M1088 5452 c-16 -19 3 -34 46 -34 20 0 37 -3 37 -6 1 -4 2 -55 3
-114 1 -59 6 -112 12 -118 14 -14 44 -2 45 19 0 9 1 61 2 116 l2 100 38 1 c45
2 67 18 49 36 -18 18 -220 18 -234 0z"/>
<path d="M1423 5463 c-11 -8 -57 -116 -94 -220 -13 -40 -15 -54 -6 -60 25 -15
35 -10 51 26 17 36 18 37 73 36 53 0 56 -1 74 -37 21 -40 25 -43 49 -28 17 11
4 54 -59 200 -36 85 -56 103 -88 83z m52 -133 l14 -40 -39 0 c-22 0 -40 3 -40
8 0 4 8 28 17 55 19 51 22 50 48 -23z"/>
<path d="M1638 5459 c-15 -9 -22 -247 -8 -269 8 -13 142 -17 180 -5 23 7 50
53 50 85 0 12 -11 31 -23 42 -23 21 -23 22 -5 40 10 10 18 28 18 41 0 25 -33
66 -53 68 -64 5 -149 4 -159 -2z m141 -48 c9 -6 11 -18 7 -35 -6 -24 -11 -26
-56 -26 l-50 0 0 35 c0 35 1 35 43 35 23 0 48 -4 56 -9z m-1 -115 c29 -10 30
-51 2 -66 -12 -6 -37 -10 -58 -8 -33 3 -37 6 -39 33 -2 17 -1 35 1 41 5 12 57
12 94 0z"/>
<path d="M1914 5447 c-3 -13 -4 -41 -2 -62 l3 -39 28 42 c31 47 34 67 11 76
-26 10 -33 7 -40 -17z"/>
<path d="M4800 5460 c0 -4 11 -17 25 -30 13 -12 23 -25 23 -29 -2 -9 45 -101
52 -101 3 0 6 26 5 57 l0 57 39 3 c46 3 66 17 48 35 -13 13 -192 20 -192 8z"/>
<path d="M5086 5448 c-22 -34 -96 -225 -96 -248 0 -44 41 -35 58 14 12 32 13
33 70 32 54 -1 58 -3 71 -33 21 -47 61 -56 61 -14 0 20 -87 240 -102 259 -16
19 -46 14 -62 -10z m52 -93 c5 -16 13 -38 17 -47 6 -15 1 -18 -34 -18 -23 0
-41 3 -41 6 0 19 36 102 41 96 3 -4 11 -20 17 -37z"/>
<path d="M5307 5458 c-13 -8 -17 -261 -5 -273 4 -4 44 -7 90 -6 91 1 127 17
139 62 7 28 -13 74 -36 83 -13 5 -13 8 5 26 38 38 12 108 -42 111 -80 5 -141
3 -151 -3z m137 -44 c9 -3 16 -16 16 -29 0 -27 -17 -35 -70 -35 -38 0 -39 1
-37 35 2 33 4 35 39 35 20 0 43 -3 52 -6z m-2 -113 c10 -1 22 -10 28 -21 16
-31 -19 -60 -73 -60 l-43 0 2 43 c1 23 2 42 3 43 0 0 16 -1 34 -2 17 -1 40 -3
49 -3z"/>
<path d="M5652 5458 c-15 -19 -102 -239 -102 -259 0 -18 26 -33 40 -24 5 3 13
20 19 38 11 33 12 33 71 33 58 0 60 -1 70 -32 16 -48 60 -58 60 -14 0 23 -74
214 -96 248 -16 24 -46 29 -62 10z m52 -115 c9 -26 16 -48 16 -50 0 -2 -18 -3
-40 -3 -22 0 -40 1 -40 3 0 15 34 97 40 97 4 0 15 -21 24 -47z"/>
<path d="M5904 5461 c-26 -11 -54 -49 -54 -72 0 -32 40 -68 94 -83 65 -19 82
-36 66 -65 -7 -15 -21 -21 -43 -21 -38 0 -50 7 -66 38 -15 29 -51 30 -51 1 0
-53 55 -91 124 -84 69 6 110 51 99 109 -7 33 -36 54 -99 70 -55 14 -75 36 -54
61 19 23 64 13 94 -21 13 -16 28 -24 34 -20 19 11 14 51 -8 71 -23 20 -104 30
-136 16z"/>
<path d="M6136 5454 c-13 -12 -16 -257 -4 -269 11 -11 200 -7 211 4 21 21 -11
35 -85 36 l-73 0 -2 38 c0 20 2 37 5 38 4 1 35 2 69 3 67 2 79 7 70 31 -5 11
-22 15 -76 15 l-69 0 0 35 0 35 74 0 c58 0 76 3 81 15 3 9 3 19 -1 22 -12 13
-188 10 -200 -3z"/>
<path d="M6534 5456 c-34 -15 -44 -33 -44 -76 0 -35 16 -48 93 -75 53 -18 62
-24 62 -45 0 -28 -36 -51 -67 -42 -11 3 -28 18 -37 34 -21 37 -57 36 -53 -2 6
-57 80 -91 150 -71 44 13 72 46 72 86 0 42 -31 69 -101 89 -61 17 -77 36 -53
61 24 24 53 18 86 -17 25 -27 31 -29 43 -17 34 33 -21 89 -87 89 -18 -1 -47
-7 -64 -14z"/>
<path d="M6754 5378 c-17 -55 -3 -128 34 -170 35 -41 37 -13 6 118 -18 77 -28
89 -40 52z"/>
<path d="M86 5334 c-10 -27 -7 -30 32 -29 45 1 63 11 55 30 -7 21 -79 20 -87
-1z"/>
<path d="M57 5208 c-6 -22 -1 -25 38 -28 74 -5 95 -1 95 20 0 23 3 22 -72 24
-47 1 -58 -2 -61 -16z"/>
<path d="M6506 5133 c-3 -3 -6 -19 -6 -34 0 -27 -2 -28 -25 -17 -19 9 -28 9
-37 0 -9 -9 -4 -14 20 -23 30 -10 31 -12 16 -34 -24 -37 -6 -54 21 -21 l22 27
17 -25 c9 -14 21 -26 26 -26 15 0 12 31 -6 51 -14 15 -12 18 17 28 25 9 30 14
21 23 -9 9 -18 9 -37 0 -24 -11 -25 -10 -25 18 0 29 -12 45 -24 33z"/>
<path d="M105 5009 c-33 -98 -38 -108 -50 -92 -12 15 -12 11 -3 -27 22 -93 38
-80 97 82 44 121 46 148 12 148 -16 0 -26 -20 -56 -111z"/>
<path d="M243 5104 c-5 -13 -8 -182 -4 -250 1 -27 26 -38 44 -20 11 12 15 126
8 264 -1 26 -38 31 -48 6z"/>
<path d="M373 5113 c-19 -7 -18 -266 1 -282 11 -9 17 -8 28 3 10 10 14 37 13
100 0 47 0 86 1 86 1 0 30 -42 64 -94 34 -52 67 -97 75 -100 7 -2 20 1 29 7
14 10 16 32 14 147 -3 131 -4 135 -25 138 -21 3 -23 -1 -24 -50 -1 -29 -1 -73
0 -97 2 -24 -2 -41 -7 -37 -5 3 -36 46 -68 95 -55 85 -70 97 -101 84z"/>
<path d="M721 5103 c-92 -45 -85 -224 10 -263 44 -18 111 -16 155 6 31 16 39
25 42 53 2 19 1 44 -2 57 -6 22 -12 24 -65 24 -32 0 -60 -3 -64 -6 -14 -14 8
-34 38 -34 66 0 47 -58 -21 -67 -58 -8 -97 27 -99 88 -5 104 79 153 142 84 27
-29 48 -32 57 -9 9 22 -19 63 -50 74 -38 15 -105 11 -143 -7z"/>
<path d="M1131 5098 c-89 -60 -72 -232 27 -266 30 -10 74 -7 114 9 34 14 65
74 48 95 -18 21 -26 18 -48 -20 -53 -89 -154 -34 -139 77 12 85 83 108 138 44
30 -35 61 -33 54 5 -14 69 -127 102 -194 56z"/>
<path d="M1428 5102 c-61 -37 -80 -153 -36 -217 28 -42 63 -58 123 -57 75 2
118 43 129 124 8 62 -15 121 -59 148 -41 25 -119 26 -157 2z m135 -54 c25 -30
31 -65 18 -109 -14 -47 -48 -72 -87 -65 -49 9 -69 45 -66 116 4 78 88 114 135
58z"/>
<path d="M1699 5080 c-1 -52 -1 -107 0 -122 1 -7 14 12 30 43 17 30 28 64 26
75 -2 10 -4 25 -4 32 -1 6 -12 12 -26 12 -22 0 -25 -4 -26 -40z"/>
<path d="M5047 5105 c-15 -14 -18 -240 -4 -262 13 -20 203 -18 211 2 8 23 -28
36 -88 32 -30 -2 -59 -1 -64 2 -5 3 -8 22 -8 41 l1 35 64 2 c112 3 111 42 -2
45 l-67 2 0 33 c0 32 1 33 43 34 23 1 48 1 56 -1 45 -6 83 30 45 44 -29 11
-174 5 -187 -9z"/>
<path d="M5304 5107 c-2 -7 -3 -71 -2 -143 l3 -129 88 -3 c94 -3 128 8 106 34
-8 9 -33 14 -75 14 l-64 0 0 104 c0 57 -3 111 -6 120 -7 19 -43 21 -50 3z"/>
<path d="M5551 5102 c-12 -23 -10 -244 2 -259 14 -19 203 -18 210 1 10 24 -15
33 -89 32 l-70 -1 -1 41 -1 42 65 0 c112 0 115 38 3 44 -60 3 -65 5 -68 27 -5
36 11 44 83 43 51 -1 67 3 72 15 9 24 -15 31 -109 31 -72 0 -90 -3 -97 -16z"/>
<path d="M5869 5106 c-86 -49 -90 -199 -8 -259 59 -43 155 -18 188 47 11 25
11 30 -4 45 -16 15 -18 15 -28 -3 -27 -43 -44 -57 -73 -62 -50 -8 -76 21 -82
89 -4 52 -2 58 25 86 18 17 38 28 49 26 10 -2 22 -4 26 -4 4 -1 20 -15 37 -33
24 -26 32 -29 44 -19 19 15 12 43 -19 72 -30 28 -116 37 -155 15z"/>
<path d="M6090 5110 c-26 -16 -2 -40 40 -40 45 0 43 9 40 -130 -1 -91 5 -110
36 -110 24 0 24 0 24 120 l0 120 34 0 c51 0 67 9 56 30 -8 15 -24 17 -113 18
-57 0 -110 -3 -117 -8z"/>
<path d="M6741 5101 c-9 -17 -12 -224 -4 -253 2 -11 14 -18 29 -18 21 0 24 4
25 43 1 23 1 50 0 59 -1 9 7 19 19 23 27 8 27 45 0 45 -16 0 -20 7 -20 35 0
29 4 35 21 35 15 0 20 5 17 23 -2 18 -10 22 -41 23 -25 1 -41 -4 -46 -15z"/>
<path d="M4962 5060 c0 -14 2 -19 5 -12 2 6 2 18 0 25 -3 6 -5 1 -5 -13z"/>
<path d="M4962 4909 c-1 -41 1 -50 9 -36 17 29 18 54 5 73 -12 15 -13 10 -14
-37z"/>
<path d="M535 4765 c-22 -8 -41 -15 -42 -15 -1 0 -11 -13 -22 -29 -48 -68 -28
-192 38 -225 47 -25 114 -21 149 9 34 29 50 74 30 86 -21 14 -27 11 -43 -20
-35 -68 -126 -52 -141 24 -8 42 12 111 34 120 48 19 64 16 98 -22 31 -34 35
-36 50 -21 15 15 15 19 -2 47 -17 28 -39 42 -89 55 -11 3 -38 -1 -60 -9z"/>
<path d="M1397 4768 c-20 -15 -110 -238 -96 -238 13 0 86 47 95 61 5 8 3 9 -6
4 -15 -9 -8 26 14 79 l14 31 12 -32 c13 -37 22 -40 44 -17 14 14 14 19 1 52
-16 36 -42 72 -55 72 -3 0 -14 -6 -23 -12z"/>
<path d="M4975 4766 c-16 -12 -19 -29 -19 -136 -1 -127 7 -159 37 -147 13 5
17 25 19 98 l3 92 63 -96 c51 -79 67 -97 87 -97 14 0 26 3 27 8 0 4 2 66 3
137 2 135 -4 162 -34 145 -13 -7 -18 -23 -19 -72 0 -35 -1 -76 -1 -93 -1 -27
-7 -21 -60 61 -73 110 -81 118 -106 100z"/>
<path d="M5590 4770 c-81 -19 -121 -124 -82 -213 24 -55 62 -77 131 -77 84 0
133 56 132 153 0 100 -79 160 -181 137z m74 -50 c31 -11 48 -42 48 -87 0 -84
-49 -126 -117 -99 -8 3 -21 19 -30 37 -23 44 -13 112 22 139 29 22 41 24 77
10z"/>
<path d="M6013 4763 c-11 -10 -39 -65 -61 -123 -54 -139 -57 -164 -20 -158 15
2 25 13 32 36 9 32 10 32 70 32 62 0 62 0 75 -35 13 -36 46 -49 57 -21 8 20
-91 258 -113 273 -17 12 -23 11 -40 -4z m57 -158 c0 -5 -16 -10 -35 -10 -40 0
-41 4 -19 70 l17 48 18 -49 c11 -27 19 -53 19 -59z"/>
<path d="M754 4757 c-2 -7 -3 -71 -2 -143 l3 -129 25 0 c27 0 27 0 29 74 1 33
5 49 14 47 38 -7 55 -21 86 -71 26 -44 37 -55 54 -53 33 5 31 31 -6 80 l-34
45 30 24 c40 32 41 83 2 117 -23 19 -37 22 -111 22 -60 0 -86 -4 -90 -13z
m148 -36 c4 -1 12 -10 18 -20 15 -30 -12 -51 -66 -51 l-44 0 0 38 0 39 43 -2
c23 -2 45 -3 49 -4z"/>
<path d="M1045 4761 c-3 -6 -6 -67 -6 -137 -1 -91 2 -129 11 -134 19 -12 129
-10 173 3 58 16 39 32 -45 35 -69 3 -76 5 -80 25 -9 50 -1 57 68 57 49 0 66 4
71 15 9 24 -3 29 -72 30 l-65 0 0 35 0 35 63 -1 c70 -1 99 9 91 31 -5 12 -27
15 -104 15 -55 0 -101 -4 -105 -9z"/>
<path d="M1537 4763 c-9 -9 -9 -33 1 -33 4 0 13 9 20 20 10 16 10 20 -1 20 -8
0 -17 -3 -20 -7z"/>
<path d="M5235 4760 c-11 -18 15 -39 53 -42 l37 -3 0 -109 c0 -92 3 -110 17
-120 32 -20 40 6 41 123 l1 111 37 0 c37 0 66 21 54 40 -4 6 -52 10 -120 10
-68 0 -116 -4 -120 -10z"/>
<path d="M6217 4764 c-4 -4 -7 -65 -7 -134 0 -94 4 -130 13 -139 16 -13 155
-13 179 0 10 5 15 16 12 24 -5 11 -23 15 -75 15 l-68 0 -3 118 c-3 109 -4 117
-23 120 -12 2 -24 0 -28 -4z"/>
<path d="M6384 4755 c-10 -24 5 -35 46 -35 l39 0 3 -117 c3 -112 4 -118 25
-121 25 -4 32 22 32 108 -2 132 -2 130 34 130 41 0 62 13 54 34 -9 23 -225 24
-233 1z"/>
<path d="M6663 4758 c-6 -7 -9 -68 -9 -136 1 -133 5 -142 57 -142 18 0 29 8
37 25 11 23 10 25 -13 25 -22 0 -24 4 -22 38 2 34 5 37 37 42 23 3 36 11 38
23 3 17 -1 19 -48 21 -21 1 -25 6 -27 34 -1 18 4 33 10 33 7 1 28 2 47 3 28 1
36 5 38 24 3 21 0 22 -66 22 -44 0 -73 -5 -79 -12z"/>
<path d="M173 4693 c-21 -8 3 -42 25 -36 23 6 52 -21 52 -47 0 -22 39 -38 50
-20 12 20 -4 62 -31 82 -24 19 -74 29 -96 21z"/>
<path d="M4859 4560 c-28 -60 -28 -80 2 -80 26 0 31 16 27 82 l-3 54 -26 -56z"/>
<path d="M4793 4422 c-13 -2 -24 -8 -24 -13 -6 -31 -2 -34 36 -34 l40 0 0
-110 c1 -114 6 -135 31 -135 23 0 30 33 29 141 -1 74 2 99 12 100 7 1 22 3 33
4 11 1 27 3 35 4 17 1 20 27 4 36 -11 7 -158 12 -196 7z"/>
<path d="M5098 4420 c-20 -12 -111 -241 -106 -267 6 -34 36 -27 55 13 17 36
21 38 66 39 57 1 59 0 81 -43 18 -36 48 -41 54 -9 5 23 -86 248 -106 265 -19
14 -22 14 -44 2z m45 -122 l16 -48 -41 0 c-30 0 -39 3 -35 14 3 8 11 33 18 55
14 48 20 45 42 -21z"/>
<path d="M5323 4422 c-13 -2 -24 -9 -24 -15 -5 -48 -3 -251 3 -260 10 -17 161
-14 193 3 47 25 49 111 3 126 -19 6 -19 6 1 28 27 29 27 67 -1 94 -18 15 -39
21 -88 24 -36 2 -75 2 -87 0z m105 -48 c26 -4 32 -9 32 -29 0 -28 -4 -31 -50
-39 -45 -7 -57 2 -56 41 1 34 7 36 74 27z m37 -130 c14 -14 14 -19 2 -38 -12
-17 -25 -21 -63 -21 l-49 0 -2 38 -1 37 48 0 c31 0 54 -6 65 -16z"/>
<path d="M5659 4420 c-21 -12 -114 -254 -106 -274 11 -27 36 -17 56 22 18 36
21 37 67 36 27 -1 52 -2 56 -3 4 -1 14 -17 23 -37 16 -39 48 -44 53 -9 4 27
-85 246 -106 263 -19 14 -22 14 -43 2z m40 -107 c8 -21 16 -44 18 -50 4 -9 -7
-13 -36 -13 -23 0 -41 1 -41 3 0 14 33 97 39 97 4 0 13 -17 20 -37z"/>
<path d="M5890 4408 c-76 -46 -35 -128 77 -152 43 -10 58 -29 43 -55 -6 -12
-16 -21 -23 -22 -7 0 -20 -2 -30 -4 -19 -3 -43 16 -63 50 -14 25 -44 13 -44
-19 0 -15 12 -34 30 -49 25 -21 39 -25 84 -24 81 3 127 53 105 114 -12 35 -28
45 -102 67 -45 13 -57 21 -57 37 0 25 43 43 70 29 11 -6 24 -19 30 -30 21 -39
57 -19 46 26 -13 49 -108 68 -166 32z"/>
<path d="M6165 4422 c-16 -2 -33 -8 -36 -13 -8 -14 -5 -257 4 -266 11 -10 166
-12 194 -2 15 5 21 14 17 23 -4 11 -26 16 -82 18 l-77 3 -2 38 c-2 40 0 41 72
38 50 -2 77 8 73 27 -4 19 -4 19 -89 21 l-60 1 4 33 3 32 62 1 c34 1 68 4 77
7 23 10 18 37 -7 38 -13 0 -45 1 -73 2 -27 1 -63 0 -80 -1z"/>
<path d="M6553 4422 c-40 -12 -63 -40 -63 -75 0 -42 21 -62 86 -82 62 -19 59
-19 72 9 10 23 9 25 -21 32 -77 16 -112 54 -64 70 34 12 60 5 80 -22 23 -30
31 -30 45 0 9 20 7 27 -12 45 -24 23 -85 34 -123 23z"/>
<path d="M4690 4297 c-8 -12 -13 -28 -12 -34 2 -7 -3 -13 -11 -13 -13 0 -55
-38 -46 -41 2 -1 18 -3 34 -4 17 -2 33 -3 37 -4 4 -1 14 -17 23 -37 16 -38 47
-45 53 -11 3 17 -46 154 -58 162 -3 2 -12 -6 -20 -18z"/>
<path d="M6486 4224 c-16 -42 55 -103 88 -75 10 9 6 19 -24 51 -40 43 -54 49
-64 24z"/>
<path d="M4804 4059 c4 -26 2 -29 -12 -24 -41 17 -52 17 -52 1 0 -10 11 -19
30 -22 l30 -6 -21 -26 c-14 -18 -17 -28 -9 -36 8 -8 16 -4 30 14 l18 24 20
-23 c28 -36 48 -18 22 20 -20 27 -20 29 -3 29 29 0 50 17 37 30 -8 8 -19 8
-38 0 -23 -9 -27 -8 -25 8 3 32 -1 42 -17 42 -11 0 -14 -7 -10 -31z"/>
<path d="M4479 4066 c-8 -6 -21 -19 -28 -29 -14 -17 -13 -18 5 -15 18 3 19 -4
20 -97 1 -55 2 -107 3 -116 1 -20 38 -32 48 -16 4 7 8 62 8 122 0 89 3 110 15
111 8 1 28 2 43 3 26 1 47 25 34 38 -11 11 -134 10 -148 -1z"/>
<path d="M5058 4072 c-20 -4 -20 -1 -20 -142 0 -142 -1 -137 22 -143 26 -7 34
8 36 68 1 28 2 53 3 56 0 3 23 4 49 3 27 -2 54 1 62 6 25 15 -6 36 -54 37 -56
1 -63 6 -61 40 1 27 3 28 65 31 70 3 92 14 72 34 -12 12 -133 18 -174 10z"/>
<path d="M5296 4068 c-23 -13 -24 -259 -1 -278 27 -22 45 5 45 67 0 53 1 54
27 51 20 -2 37 -17 63 -56 39 -59 59 -75 80 -62 11 7 11 13 0 40 -8 18 -24 45
-36 60 l-23 27 23 13 c13 7 28 22 33 34 13 29 -3 83 -29 97 -26 14 -160 19
-182 7z m148 -54 c12 -11 13 -20 6 -34 -12 -22 -33 -30 -77 -28 -31 1 -33 3
-33 40 l0 38 44 0 c27 0 51 -6 60 -16z"/>
<path d="M5623 4061 c-84 -53 -88 -205 -7 -258 39 -25 125 -23 161 3 75 56 78
195 6 248 -39 29 -120 32 -160 7z m145 -79 c36 -103 -54 -197 -123 -127 -52
51 -26 167 39 177 32 6 73 -18 84 -50z"/>
<path d="M5900 4070 c-12 -7 -15 -36 -16 -140 -1 -117 1 -132 17 -140 28 -16
39 16 40 117 l1 88 23 -93 c24 -99 36 -121 63 -118 17 3 45 70 57 135 14 81
23 73 24 -23 1 -100 8 -120 38 -109 10 4 13 36 13 139 0 153 -1 156 -76 146
-7 -1 -22 -42 -35 -92 -13 -49 -27 -84 -31 -77 -4 6 -15 43 -24 82 -9 38 -20
74 -24 78 -11 13 -54 17 -70 7z"/>
<path d="M6329 4048 c-1 -13 -1 -26 -1 -30 1 -3 -5 -12 -13 -18 -18 -15 -19
-37 -2 -42 7 -3 13 -25 14 -54 0 -27 2 -51 2 -53 1 -3 12 6 26 19 17 16 25 34
25 57 0 26 4 33 20 33 26 0 26 30 1 37 -14 3 -21 15 -23 37 -2 23 -8 32 -25
34 -18 3 -23 -2 -24 -20z"/>
<path d="M4310 3887 c0 -25 -47 -59 -77 -56 -16 2 -39 -4 -52 -13 l-23 -17 38
-10 c41 -11 84 -7 115 10 24 12 52 66 45 85 -7 18 -46 18 -46 1z"/>
<path d="M4015 3704 l-30 -24 43 0 c23 0 43 5 44 10 4 28 2 33 -12 35 -9 2
-29 -8 -45 -21z"/>
<path d="M4140 3715 c-7 -8 -10 -59 -8 -141 l3 -129 25 0 c23 0 25 4 28 58 3
53 5 57 28 57 17 0 32 -12 52 -41 56 -84 65 -91 86 -76 18 13 18 15 1 48 -10
19 -26 43 -36 55 -19 20 -19 21 10 41 15 12 31 30 33 41 8 28 -18 81 -44 91
-38 14 -165 11 -178 -4z m148 -40 c15 -5 16 -51 1 -60 -6 -4 -30 -8 -55 -10
l-44 -2 0 38 c0 28 5 39 18 42 17 4 57 0 80 -8z"/>
<path d="M4494 3715 c-10 -24 6 -35 49 -35 l42 0 0 -115 c0 -92 3 -118 15
-125 32 -20 43 12 41 129 l-1 111 46 0 c41 0 45 2 42 23 -3 21 -7 22 -116 24
-90 2 -114 -1 -118 -12z"/>
<path d="M4820 3710 c-6 -11 -31 -72 -56 -137 -43 -109 -45 -118 -29 -130 23
-16 32 -10 50 33 14 33 16 34 70 34 53 0 56 -1 72 -35 17 -36 49 -47 59 -21 3
8 -9 49 -26 93 -17 43 -39 96 -48 118 -9 22 -20 46 -25 53 -15 19 -55 14 -67
-8z m70 -140 c0 -11 -10 -16 -35 -17 -37 -1 -42 8 -26 49 5 13 13 32 16 43 6
17 10 15 26 -20 10 -22 19 -47 19 -55z"/>
<path d="M5040 3709 c-11 -19 -14 -227 -4 -253 5 -13 23 -16 94 -16 81 0 89 2
114 26 34 34 34 77 1 108 -24 22 -24 23 -4 42 15 15 18 27 13 52 -9 44 -42 59
-132 59 -60 0 -74 -3 -82 -18z m142 -35 c21 -6 24 -34 6 -52 -7 -7 -31 -12
-55 -12 -42 0 -43 1 -43 33 0 19 2 36 5 39 6 6 60 1 87 -8z m2 -114 c18 -7 26
-17 26 -34 0 -32 -11 -38 -71 -41 l-49 -3 0 44 c0 43 0 44 34 44 19 0 46 -4
60 -10z"/>
<path d="M5327 3723 c-9 -8 -9 -246 -1 -267 5 -13 23 -16 93 -16 91 0 121 11
100 37 -7 8 -35 13 -75 13 l-64 0 0 104 c0 57 -3 111 -6 120 -6 16 -35 22 -47
9z"/>
<path d="M5575 3716 c-10 -8 -13 -39 -11 -131 2 -66 4 -126 4 -132 3 -19 195
-18 211 1 17 20 -3 31 -64 33 -27 1 -60 2 -73 2 -21 1 -23 5 -20 39 l3 37 64
2 c113 5 110 43 -2 44 l-67 1 0 34 c0 33 1 34 43 35 23 1 53 1 67 0 33 -2 54
13 47 33 -6 14 -22 16 -97 14 -50 -1 -97 -6 -105 -12z"/>
<path d="M5982 3710 c-57 -35 -81 -135 -47 -201 13 -24 19 -28 33 -20 14 8 17
24 17 80 0 57 4 74 20 90 32 32 70 33 100 3 24 -24 27 -24 43 -9 13 13 14 21
6 35 -28 44 -116 56 -172 22z"/>
<path d="M3887 3622 c-27 -16 -28 -20 -26 -89 1 -39 5 -76 9 -83 4 -7 41 -10
106 -8 91 3 99 5 99 23 0 18 -7 20 -60 22 -33 0 -68 2 -77 2 -14 1 -18 10 -18
40 l0 38 67 2 c37 1 72 6 77 11 19 19 -8 30 -74 30 -52 0 -69 4 -72 14 -2 13
-7 12 -31 -2z"/>
<path d="M3697 3506 c-29 -27 -27 -61 4 -69 23 -6 41 28 34 64 -6 31 -9 32
-38 5z"/>
<path d="M3590 3450 c-13 -8 -13 -10 2 -10 9 0 20 5 23 10 8 13 -5 13 -25 0z"/>
<path d="M3559 3373 c-11 -12 -69 -130 -69 -139 0 -2 13 -4 28 -4 25 0 31 6
42 40 7 22 16 40 21 40 4 0 14 -18 23 -40 13 -32 21 -40 41 -40 14 0 25 4 25
8 0 5 -15 40 -34 79 -34 70 -54 84 -77 56z"/>
<path d="M3850 3377 c-114 -29 -172 -164 -118 -275 18 -38 30 -49 79 -71 47
-21 57 -29 54 -46 -2 -11 -4 -23 -4 -26 -1 -4 -11 -9 -23 -13 -18 -4 -20 -8
-10 -18 7 -7 18 -13 25 -13 8 0 11 -22 10 -69 -1 -38 2 -78 8 -88 10 -18 37
-25 41 -10 1 7 6 88 7 135 1 20 7 30 21 34 26 7 26 29 -1 36 -31 8 -21 41 14
45 15 2 27 7 27 12 0 4 10 10 23 14 32 8 81 51 73 65 -8 13 -36 15 -36 2 0
-19 -76 -44 -132 -43 -101 1 -158 53 -158 142 0 97 77 167 172 156 76 -8 118
-48 118 -112 0 -33 -25 -81 -50 -94 -17 -9 -20 -8 -20 12 0 13 4 39 9 58 25
95 25 91 -16 90 -21 0 -56 0 -78 0 -33 1 -45 -5 -67 -31 -48 -57 -42 -147 13
-169 23 -10 36 -10 56 -1 19 9 29 9 39 0 31 -25 104 12 133 69 65 127 -57 249
-209 209z m70 -122 c16 -19 7 -81 -16 -106 -40 -44 -78 -7 -63 60 12 54 53 77
79 46z"/>
<path d="M4106 3377 c-15 -11 -15 -15 -4 -24 7 -6 22 -12 32 -14 18 -4 19 -14
18 -134 -1 -71 -1 -133 -2 -137 0 -5 -11 -8 -24 -8 -49 0 -39 -39 10 -43 26
-2 31 -8 47 -57 25 -73 23 -163 -4 -234 -11 -32 -19 -59 -16 -62 13 -13 38 14
61 66 36 79 38 157 6 225 -22 46 -23 64 -25 232 -1 100 -3 185 -6 187 -13 14
-76 15 -93 3z"/>
<path d="M4631 3379 c-88 -16 -151 -95 -151 -189 0 -56 20 -105 54 -132 18
-15 19 -18 4 -18 -12 0 -30 -24 -53 -70 -19 -38 -35 -74 -35 -80 0 -6 12 -10
26 -8 21 2 30 12 44 48 l17 44 21 -47 c17 -38 26 -47 46 -47 14 0 26 1 26 3 0
5 -38 88 -55 121 -14 26 -14 28 2 21 33 -13 151 -18 182 -7 18 6 29 7 26 3 -7
-12 17 -29 38 -26 18 3 18 -3 19 -182 0 -57 3 -60 32 -38 16 12 19 29 19 129
1 64 -2 118 -5 122 -7 6 -33 12 -62 13 -19 1 -19 2 2 21 27 26 28 40 2 40 -11
0 -20 -4 -20 -9 0 -19 -76 -45 -132 -44 -64 1 -109 22 -142 66 -42 56 -15 169
51 212 33 22 129 26 165 6 39 -20 62 -70 54 -114 -8 -43 -54 -96 -66 -76 -5 7
-6 17 -4 23 2 6 10 40 18 75 l15 63 -40 -5 c-21 -3 -41 -1 -44 3 -8 13 -57 2
-85 -19 -35 -26 -57 -100 -41 -139 16 -39 62 -59 98 -43 18 8 29 9 38 1 7 -6
24 -9 38 -6 65 12 116 80 111 148 -8 103 -93 158 -213 137z m57 -121 c18 -18
14 -59 -8 -95 -25 -41 -56 -44 -71 -7 -23 62 39 142 79 102z"/>
<path d="M5232 3378 c-10 -13 -2 -57 49 -250 9 -37 33 -51 41 -26 6 16 -57
267 -70 280 -5 5 -13 4 -20 -4z"/>
<path d="M5544 3373 c-9 -10 -26 -37 -36 -60 -21 -47 -35 -158 -21 -166 20
-12 40 21 46 76 4 31 16 80 26 107 20 53 14 71 -15 43z"/>
<path d="M5668 3371 c-39 -19 -62 -59 -46 -78 17 -20 32 -15 50 17 18 32 54
40 76 18 10 -9 16 -8 29 5 15 15 16 19 2 32 -22 22 -74 25 -111 6z"/>
<path d="M3402 3352 l-52 -26 2 -151 c3 -147 3 -150 25 -153 l23 -3 -22 -42
c-33 -64 -36 -169 -8 -235 12 -28 28 -57 36 -63 12 -9 9 -17 -17 -46 -49 -57
-65 -120 -47 -190 15 -62 58 -101 139 -126 22 -7 13 -54 -12 -62 -25 -8 -24
-25 1 -32 17 -4 20 -15 22 -87 3 -79 4 -81 28 -81 25 0 25 1 25 79 0 72 2 79
23 87 27 10 29 29 2 36 -29 8 -26 43 4 43 13 0 29 7 36 15 6 8 22 17 33 21 12
4 33 19 46 33 21 22 22 26 8 29 -10 2 -34 -7 -55 -20 -30 -18 -51 -23 -107
-23 -106 0 -158 43 -161 134 -4 94 61 162 155 163 91 0 148 -58 134 -136 -6
-27 -45 -76 -63 -76 -13 0 -13 1 5 84 8 38 12 72 10 77 -6 9 -45 8 -45 -2 0
-4 -13 -2 -30 4 -40 15 -79 0 -107 -42 -30 -44 -31 -109 -3 -139 22 -24 78
-30 97 -11 8 8 13 8 17 0 10 -16 52 -14 87 4 42 22 69 71 69 126 0 108 -107
174 -227 140 -30 -9 -31 -8 -49 37 -35 92 -22 264 23 299 22 17 9 43 -21 43
l-25 0 2 142 c2 139 2 141 24 143 26 2 37 10 32 23 -2 5 -28 -2 -57 -16z m146
-798 c13 -24 -3 -86 -28 -106 -17 -14 -26 -15 -42 -7 -17 9 -20 18 -15 55 2
24 10 51 17 59 17 20 57 19 68 -1z"/>
<path d="M4328 3330 c0 -3 -2 -18 -2 -35 -1 -27 -5 -30 -39 -33 -32 -3 -37 -7
-37 -28 0 -21 5 -24 35 -24 36 0 37 -2 37 -52 1 -22 5 -26 27 -25 22 2 25 7
26 37 1 33 3 35 38 38 31 3 37 7 37 27 0 20 -6 24 -37 27 -30 2 -38 7 -39 23
-3 49 -5 54 -24 52 -11 -1 -21 -4 -22 -7z"/>
<path d="M5083 3328 c-6 -7 -9 -25 -8 -40 2 -26 -1 -28 -37 -28 -34 0 -38 -3
-38 -25 0 -22 4 -25 35 -25 19 0 36 -3 36 -7 1 -5 2 -20 3 -35 2 -35 9 -41 36
-33 17 5 21 13 18 38 -3 30 -1 32 35 35 32 3 37 7 37 28 0 21 -5 24 -35 24
-34 0 -40 10 -34 56 1 7 -22 24 -32 24 -4 0 -11 -6 -16 -12z"/>
<path d="M3170 3235 c-42 -22 -43 -24 -17 -25 25 0 27 -3 27 -38 0 -34 3 -38
25 -38 22 0 25 4 25 37 0 36 1 38 38 41 30 2 37 7 38 26 1 20 -3 22 -45 22
-29 -1 -63 -10 -91 -25z"/>
<path d="M3028 3159 c-13 -7 -18 -23 -18 -54 0 -40 -2 -44 -27 -47 -14 -2 -28
-9 -31 -16 -5 -17 35 -30 72 -22 31 6 31 6 34 78 3 73 0 79 -30 61z"/>
<path d="M4901 3136 c-17 -20 -2 -48 23 -44 24 3 34 37 14 49 -18 12 -24 11
-37 -5z"/>
<path d="M5371 3132 c-12 -23 1 -45 25 -40 23 4 31 37 12 49 -19 13 -26 11
-37 -9z"/>
<path d="M3094 3027 c-3 -8 10 -74 28 -148 26 -104 37 -135 51 -137 23 -5 22
10 -16 162 -30 120 -49 158 -63 123z"/>
<path d="M3525 3020 c-32 -21 -48 -51 -39 -75 10 -24 32 -17 48 14 18 34 33
41 64 30 31 -12 27 -35 -14 -81 -22 -25 -34 -47 -32 -61 4 -28 36 -35 45 -10
3 10 24 37 45 60 44 49 47 71 16 108 -31 35 -92 42 -133 15z"/>
<path d="M3740 3025 c-13 -15 -7 -154 7 -180 17 -30 32 4 39 89 5 70 4 90 -7
97 -19 12 -25 11 -39 -6z"/>
<path d="M4321 3031 c-11 -7 -14 -42 -12 -175 l1 -166 -27 0 c-73 -1 -153 -66
-174 -143 -18 -66 11 -177 46 -177 24 0 28 20 8 42 -13 15 -18 36 -18 82 0
101 56 157 156 158 73 0 128 -40 129 -94 0 -29 6 -33 29 -19 20 13 5 65 -29
101 -15 16 -24 32 -19 35 16 10 -3 35 -27 35 l-25 0 3 142 c3 129 5 141 22
144 23 3 42 21 33 30 -11 11 -81 15 -96 5z"/>
<path d="M5191 3021 c-8 -14 -9 -31 -2 -59 1 -2 14 6 30 17 16 12 33 21 39 21
5 0 15 7 22 15 10 12 8 15 -12 19 -45 8 -68 5 -77 -13z"/>
<path d="M2940 2949 c0 -38 -2 -40 -28 -38 -36 4 -51 -7 -45 -31 4 -15 14 -20
39 -20 32 0 34 -2 34 -34 0 -33 13 -47 38 -39 6 3 12 20 12 39 0 33 1 34 40
34 36 0 40 3 40 25 0 17 -6 25 -17 26 -10 1 -27 2 -38 3 -12 0 -21 9 -21 21
-1 11 -2 28 -3 38 -1 11 -9 17 -26 17 -23 0 -25 -4 -25 -41z"/>
<path d="M5014 2976 c-3 -7 -4 -17 -3 -22 5 -30 -3 -45 -23 -44 -41 4 -48 0
-48 -25 0 -22 4 -25 39 -25 44 0 137 45 105 52 -12 2 -19 13 -20 33 -1 17 -2
33 -3 38 -2 13 -41 8 -47 -7z"/>
<path d="M2683 2952 c-7 -4 -11 -27 -10 -55 1 -33 -5 -54 -19 -74 -28 -37 -56
-43 -50 -11 2 13 7 40 11 61 4 20 3 37 -1 37 -19 -1 -48 -31 -51 -52 -5 -29
-30 -68 -50 -75 -10 -4 -23 2 -33 15 -15 19 -20 19 -36 7 -39 -28 22 -72 74
-53 14 4 31 4 41 -2 38 -20 108 17 137 72 24 46 14 146 -13 130z"/>
<path d="M3997 2953 c-4 -3 -7 -51 -7 -105 0 -80 3 -100 16 -105 25 -9 33 7
37 79 6 79 12 91 44 85 14 -2 31 2 40 11 14 14 13 17 -3 29 -23 17 -49 17 -66
0 -11 -12 -16 -12 -26 0 -14 14 -25 17 -35 6z"/>
<path d="M2764 2785 c-8 -21 2 -45 19 -45 8 0 20 7 27 15 10 12 10 18 0 30 -7
8 -19 15 -27 15 -7 0 -16 -7 -19 -15z"/>
<path d="M3237 2793 c-13 -12 -7 -41 9 -47 24 -9 31 -7 38 10 11 28 -27 57
-47 37z"/>
<path d="M3557 2793 c-13 -12 -7 -44 9 -50 23 -9 48 25 33 44 -12 14 -32 17
-42 6z"/>
<path d="M3737 2786 c-8 -20 2 -46 17 -46 21 0 38 18 34 36 -4 24 -43 31 -51
10z"/>
<path d="M4694 2785 c-8 -21 2 -45 19 -45 8 0 20 7 27 15 10 12 10 18 0 30 -7
8 -19 15 -27 15 -7 0 -16 -7 -19 -15z"/>
<path d="M2375 2760 c-11 -17 15 -49 56 -70 22 -12 77 -26 122 -31 l82 -11 -2
-112 c-2 -171 -3 -177 -10 -173 -5 3 -19 1 -32 -4 -19 -8 -21 -12 -11 -24 14
-17 67 -20 90 -5 11 7 14 40 15 170 0 89 -3 166 -7 173 -3 6 5 25 19 41 22 26
23 32 10 34 -9 2 -36 -8 -60 -22 -72 -43 -190 -30 -237 24 -19 22 -26 24 -35
10z"/>
<path d="M2272 2617 c-18 -40 -32 -75 -32 -78 0 -4 11 -6 24 -6 20 0 29 9 45
46 l20 46 20 -48 c17 -38 25 -47 46 -47 14 0 25 2 25 4 0 3 -15 39 -34 80 -29
63 -39 76 -58 76 -19 -1 -29 -14 -56 -73z"/>
<path d="M2984 2678 c-5 -7 -8 -84 -9 -172 -1 -158 3 -177 35 -188 7 -2 3 -22
-11 -52 -32 -73 -29 -161 7 -235 l29 -58 -36 -35 c-66 -65 -76 -184 -22 -248
19 -23 28 -28 38 -20 11 9 9 18 -11 47 -46 68 -22 176 49 219 21 12 52 18 89
19 67 0 108 -24 123 -74 11 -38 41 -39 37 -1 -7 68 -76 113 -172 113 l-68 0
-17 53 c-27 88 -21 179 18 262 16 35 17 46 7 52 -7 4 -19 6 -27 3 -15 -6 -15
-9 -15 132 0 163 -2 155 27 155 18 0 25 5 25 20 0 17 -7 20 -44 20 -25 0 -48
-6 -52 -12z"/>
<path d="M3170 2663 c-7 -16 -23 -51 -36 -79 l-22 -51 28 -1 c24 0 30 5 45 45
l18 46 24 -46 c18 -37 29 -47 48 -47 28 0 28 -2 -19 103 -21 46 -30 57 -49 57
-16 0 -28 -9 -37 -27z"/>
<path d="M3725 2680 c-10 -16 13 -39 34 -33 17 4 18 -5 17 -139 -1 -106 -4
-143 -13 -144 -7 -1 -20 -2 -28 -3 -8 0 -15 -7 -15 -15 0 -15 21 -26 50 -26
24 0 30 -11 50 -83 l16 -58 22 18 22 18 -26 55 c-24 53 -26 62 -24 224 0 114
-3 172 -11 182 -13 16 -85 19 -94 4z"/>
<path d="M2805 2606 c2 -38 -5 -44 -47 -41 -24 2 -28 -2 -28 -25 0 -25 3 -28
35 -25 36 2 37 1 38 -52 0 -18 5 -23 27 -23 24 0 26 3 25 35 -2 36 -1 37 53
38 18 0 22 5 22 28 0 27 -2 28 -37 26 -37 -2 -38 -1 -38 33 0 30 -3 35 -26 38
-25 3 -27 1 -24 -32z"/>
<path d="M3948 2603 c-3 -35 -5 -37 -38 -37 -30 -1 -35 -4 -35 -26 0 -20 5
-25 25 -26 14 -1 31 -2 38 -3 7 0 12 -15 12 -36 0 -31 3 -35 25 -35 22 0 25 4
25 35 0 35 4 39 48 37 12 -1 23 3 23 8 6 41 3 45 -26 46 -16 1 -33 2 -37 3 -5
1 -8 17 -8 36 0 30 -3 35 -24 35 -21 0 -25 -5 -28 -37z"/>
<path d="M2117 2597 c-15 -10 -18 -31 -18 -137 l-1 -125 -38 -24 c-48 -30 -80
-87 -87 -154 -11 -119 74 -189 245 -200 22 -2 22 -4 22 -144 l0 -142 -27 -3
c-47 -5 -35 -32 17 -38 25 -3 46 -9 47 -15 1 -5 15 -65 32 -133 17 -68 31
-125 31 -128 0 -8 29 -4 34 5 8 12 -54 264 -70 282 -10 11 -14 59 -16 180 l-3
164 33 29 c47 41 22 50 -43 16 -123 -65 -265 -4 -265 113 0 82 47 141 124 156
110 20 189 -44 165 -135 -9 -32 -55 -82 -66 -71 -5 6 2 49 24 145 4 18 1 22
-21 22 -14 0 -26 -5 -26 -12 0 -9 -3 -9 -12 0 -7 7 -29 12 -49 12 -30 0 -43
-7 -68 -35 -34 -40 -40 -67 -26 -131 7 -31 59 -51 96 -37 17 7 31 7 35 2 10
-16 57 -9 91 14 63 42 80 146 35 207 -21 28 -139 93 -153 84 -5 -3 -9 48 -9
120 0 69 -4 126 -8 126 -5 0 -16 -6 -25 -13z m61 -379 c17 -17 15 -63 -4 -99
-12 -24 -21 -30 -42 -27 -24 3 -27 8 -30 45 -3 35 2 48 22 68 28 28 37 30 54
13z"/>
<path d="M4232 2594 c-12 -8 -29 -29 -38 -45 -39 -76 -2 -171 51 -133 19 14
19 16 3 25 -23 13 -24 76 -2 107 11 16 24 22 42 20 23 -3 27 -8 30 -41 2 -21
-2 -45 -9 -53 -20 -24 -2 -27 29 -5 20 14 32 33 37 58 3 21 9 48 11 59 5 18 1
21 -18 20 -13 0 -26 -5 -30 -11 -5 -6 -12 -5 -20 3 -17 17 -59 15 -86 -4z"/>
<path d="M2010 2527 c-8 -7 -16 -30 -18 -51 -2 -22 -12 -66 -23 -98 -24 -71
-24 -71 2 -57 29 15 67 103 72 167 5 54 -3 63 -33 39z"/>
<path d="M2483 2434 c-3 -8 2 -23 11 -32 14 -15 18 -15 31 -1 9 9 13 23 9 32
-8 21 -43 22 -51 1z"/>
<path d="M2724 2336 c-3 -9 8 -77 26 -151 27 -115 35 -135 51 -135 10 0 19 4
19 9 0 5 -14 67 -31 137 -30 130 -52 175 -65 140z"/>
<path d="M3975 2342 c-11 -2 -24 -8 -29 -13 -13 -11 -16 -79 -4 -79 19 0 48
21 48 35 0 9 10 15 25 15 14 0 25 5 25 10 0 6 0 13 0 18 0 10 -41 19 -65 14z"/>
<path d="M3150 2323 c-32 -22 -40 -33 -40 -60 0 -32 37 -31 52 2 13 30 52 43
73 25 23 -19 18 -34 -20 -76 -25 -27 -35 -47 -33 -64 4 -35 35 -39 44 -6 3 15
16 34 28 44 58 46 66 97 22 134 -27 22 -94 23 -126 1z"/>
<path d="M3364 2325 c-9 -22 5 -168 17 -180 13 -13 28 11 30 50 7 121 5 140
-19 143 -13 2 -25 -3 -28 -13z"/>
<path d="M1660 2294 c-10 -11 -13 -53 -13 -145 0 -133 -1 -136 -40 -130 -4 1
-10 -6 -13 -14 -4 -8 -12 -15 -20 -15 -18 0 -18 1 7 -73 25 -73 22 -174 -6
-245 -19 -45 -17 -56 7 -47 26 10 60 97 66 166 4 53 0 76 -20 126 l-25 61 31
-2 c65 -6 66 -2 66 174 0 129 -3 160 -14 160 -7 0 -19 -7 -26 -16z"/>
<path d="M2570 2259 c0 -38 -1 -39 -37 -39 -33 0 -38 -3 -39 -25 -2 -25 10
-30 59 -26 14 2 17 -6 17 -38 0 -37 3 -41 24 -41 21 0 25 5 28 38 2 30 7 37
26 38 50 3 52 4 48 27 -2 17 -10 23 -39 25 -35 3 -37 5 -37 36 0 28 -4 34 -25
38 -23 5 -25 2 -25 -33z"/>
<path d="M1819 2283 c-1 -5 0 -20 1 -35 1 -26 -1 -28 -39 -28 -37 0 -41 -2
-41 -25 0 -25 8 -29 44 -25 23 2 36 -16 36 -52 0 -23 4 -28 25 -28 22 0 25 4
25 39 0 30 4 38 18 38 52 0 59 3 58 26 -1 18 -8 23 -38 25 -36 3 -38 5 -38 38
0 30 -3 34 -25 34 -14 0 -25 -3 -26 -7z"/>
<path d="M3618 2233 c-3 -59 0 -164 5 -169 3 -3 14 -1 25 5 15 8 21 24 24 70
2 34 7 64 11 67 4 4 21 7 39 8 26 1 33 5 33 21 0 23 -47 34 -70 15 -9 -7 -15
-8 -20 0 -3 5 -15 10 -26 10 -14 0 -19 -7 -21 -27z"/>
<path d="M1547 2223 c-3 -5 -8 -24 -12 -43 -8 -37 -28 -66 -59 -82 -17 -9 -18
-7 -12 26 9 45 -2 45 -45 1 -19 -19 -41 -35 -49 -35 -8 0 -24 -7 -34 -15 -18
-14 -18 -15 -1 -21 10 -4 30 -3 46 3 18 7 31 7 37 1 28 -28 122 24 143 79 18
48 6 120 -14 86z"/>
<path d="M2403 2103 c-7 -3 -13 -15 -13 -28 0 -27 17 -36 42 -24 30 16 3 63
-29 52z"/>
<path d="M2878 2099 c-23 -13 -23 -36 1 -48 25 -14 42 6 30 37 -10 25 -8 25
-31 11z"/>
<path d="M3186 2095 c-20 -20 -10 -45 19 -45 29 0 39 25 19 45 -9 8 -17 15
-19 15 -2 0 -10 -7 -19 -15z"/>
<path d="M3377 2099 c-22 -13 -22 -36 1 -48 32 -17 57 24 29 47 -8 7 -18 7
-30 1z"/>
<path d="M1534 2048 c-4 -6 -25 -19 -48 -29 -48 -21 -128 -19 -174 5 -35 18
-68 4 -41 -17 15 -11 15 -15 3 -32 -8 -10 -14 -29 -14 -41 0 -13 -8 -24 -20
-27 -11 -3 -20 -10 -20 -17 0 -7 9 -14 20 -17 18 -5 20 -14 20 -73 0 -81 6
-100 31 -100 22 0 21 -5 23 89 1 66 4 75 24 84 29 13 28 25 -3 37 -22 8 -24
13 -15 30 8 14 17 19 30 15 10 -3 21 -2 24 3 3 5 29 10 57 11 54 1 117 29 137
61 9 15 8 19 -9 23 -10 3 -22 1 -25 -5z"/>
<path d="M1719 1989 c-10 -6 -13 -47 -14 -174 l0 -166 -35 -9 c-86 -23 -138
-92 -139 -187 -2 -112 67 -175 197 -179 40 -1 76 -4 79 -8 4 -3 16 -6 29 -6
28 0 30 -10 29 -159 0 -122 -1 -124 -23 -126 -51 -4 -40 -45 12 -45 60 0 63
10 61 187 -3 198 0 183 -32 183 l-27 0 22 20 c45 42 13 56 -39 18 -26 -19 -43
-23 -108 -23 -69 0 -81 3 -114 28 -57 44 -67 142 -19 206 45 61 160 79 220 34
49 -36 54 -121 10 -163 -41 -38 -46 -26 -28 60 9 44 16 80 16 81 -6 5 -48 4
-51 -2 -3 -4 -18 -2 -33 3 -59 23 -127 -40 -126 -117 2 -67 40 -101 97 -84 15
4 38 4 49 0 30 -11 61 -3 90 22 71 62 72 169 3 224 -19 16 -35 36 -35 46 0 11
-8 17 -25 17 -14 0 -25 3 -26 8 0 4 -2 63 -2 131 -2 92 1 128 11 138 8 7 18
11 23 7 10 -6 25 24 15 33 -9 10 -72 11 -87 2z m21 -474 c23 -28 -14 -126 -47
-125 -22 1 -36 22 -36 53 0 66 51 110 83 72z"/>
<path d="M1903 1967 c-10 -18 -27 -53 -40 -79 l-22 -48 28 0 c25 0 31 7 48 47
l19 48 19 -48 c15 -41 21 -47 46 -47 l28 0 -30 68 c-17 37 -34 71 -40 76 -19
20 -40 13 -56 -17z"/>
<path d="M2597 1988 c-15 -8 -17 -32 -16 -186 1 -160 -1 -181 -20 -224 -28
-61 -33 -147 -14 -204 8 -24 18 -44 23 -44 19 0 28 27 21 65 -11 62 -4 141 18
190 17 39 24 45 51 45 25 0 31 4 28 18 -2 10 -14 18 -29 20 l-26 3 1 136 1
136 28 10 c24 8 38 35 20 38 -41 6 -73 5 -86 -3z"/>
<path d="M2793 1993 c-7 -3 -13 -9 -13 -14 0 -5 -13 -37 -30 -71 -16 -34 -30
-63 -30 -65 0 -2 13 -3 29 -3 25 0 31 6 46 47 l18 47 17 -45 c14 -35 23 -45
44 -47 34 -4 33 7 -7 87 -30 61 -46 74 -74 64z"/>
<path d="M3343 1993 c-22 -8 -14 -32 12 -39 23 -6 29 -15 26 -36 0 -4 10 -2
24 4 14 6 25 14 26 17 0 3 2 14 4 23 2 10 -1 21 -7 24 -13 8 -70 13 -85 7z"/>
<path d="M1158 1952 c-24 -14 -28 -23 -27 -57 2 -57 12 -98 26 -102 6 -2 14 4
17 14 6 22 19 163 14 162 -2 0 -15 -8 -30 -17z"/>
<path d="M2423 1943 c-7 -2 -13 -20 -13 -38 0 -32 -2 -34 -37 -37 -30 -2 -37
-7 -38 -25 -1 -20 3 -23 37 -23 37 0 38 -1 38 -35 0 -19 3 -35 8 -36 4 0 15
-2 25 -4 17 -3 21 8 17 53 -1 19 3 22 39 22 37 0 41 2 41 25 0 22 -4 25 -38
25 -35 0 -38 2 -40 31 -4 47 -10 54 -39 42z"/>
<path d="M1401 1911 c-10 -6 -14 -35 -15 -96 -2 -91 8 -123 38 -112 12 5 16
20 16 61 0 30 5 67 10 82 9 23 14 26 41 20 32 -6 51 16 31 36 -14 14 -65 13
-70 -1 -3 -9 -9 -8 -21 3 -10 9 -22 12 -30 7z"/>
<path d="M3083 1905 c-17 -7 -39 -28 -48 -46 -45 -87 4 -183 68 -134 18 13 17
14 -5 17 -18 2 -24 10 -26 37 -7 66 38 120 73 91 20 -16 19 -70 -1 -99 l-16
-23 29 15 c38 20 49 35 58 77 3 19 9 43 12 53 4 15 -1 17 -34 15 -21 -1 -47 1
-58 5 -11 3 -34 0 -52 -8z"/>
<path d="M1003 1843 c-53 -37 -65 -56 -39 -66 14 -6 36 10 36 27 0 6 14 25 32
43 41 42 35 41 -29 -4z"/>
<path d="M955 1744 c-12 -12 -13 -19 -4 -30 16 -20 36 -17 49 6 15 28 -21 47
-45 24z"/>
<path d="M1142 1751 c-20 -12 -10 -46 14 -49 25 -4 40 24 23 44 -13 16 -19 17
-37 5z"/>
<path d="M2097 1749 c-13 -8 -15 -14 -7 -30 14 -25 36 -24 50 1 13 24 -16 44
-43 29z"/>
<path d="M790 1690 c-12 -8 -12 -12 0 -36 14 -25 36 -41 45 -32 6 5 -17 78
-24 78 -3 0 -13 -4 -21 -10z"/>
<path d="M885 1634 c-149 -54 -168 -275 -29 -341 28 -14 34 -22 32 -45 -1 -17
-9 -30 -20 -34 -23 -7 -23 -30 0 -36 15 -4 18 -16 18 -82 -1 -83 11 -109 39
-86 11 9 15 33 15 91 0 73 2 79 21 79 14 0 19 5 17 18 -2 9 -10 17 -18 17 -8
0 -15 9 -15 20 0 14 8 21 25 23 14 2 30 7 35 12 6 4 25 11 42 15 41 8 106 67
81 73 -10 2 -37 -8 -61 -22 -88 -52 -216 -26 -252 50 -38 81 4 192 83 214 106
29 192 -14 192 -98 0 -40 -23 -87 -46 -96 -26 -10 -28 -1 -15 61 7 32 13 67
14 78 2 20 -19 28 -39 13 -7 -5 -23 -3 -38 3 -74 34 -159 -83 -119 -164 17
-34 48 -47 87 -36 16 5 35 5 43 1 50 -29 137 38 148 112 19 123 -107 207 -240
160z m90 -125 c18 -55 -23 -127 -64 -114 -29 9 -32 71 -5 113 19 29 60 30 69
1z"/>
<path d="M1153 1634 c-7 -19 -1 -25 26 -27 11 -1 22 -6 24 -12 2 -5 3 -68 2
-140 l0 -130 -30 -5 c-33 -6 -37 -21 -7 -35 48 -22 71 -193 37 -285 -29 -79
-29 -79 -7 -73 30 7 72 103 76 173 3 44 -2 73 -20 116 -19 48 -21 60 -10 78
14 23 17 321 3 342 -10 18 -87 16 -94 -2z"/>
<path d="M2699 1622 c-42 -35 -38 -92 5 -76 9 3 16 12 16 19 0 6 9 20 21 31
22 20 43 13 63 -19 9 -13 3 -24 -27 -53 -46 -45 -49 -65 -4 -32 17 13 44 33
59 44 33 23 36 56 8 84 -23 23 -21 22 -74 25 -28 1 -46 -5 -67 -23z"/>
<path d="M2933 1643 c-7 -2 -13 -14 -13 -25 0 -20 1 -21 20 -3 30 27 26 42 -7
28z"/>
<path d="M651 1591 c-12 -8 -12 -16 3 -55 14 -37 22 -46 42 -46 30 0 30 7 2
65 -23 48 -25 50 -47 36z"/>
<path d="M1379 1593 c-1 -5 -2 -21 -3 -38 -1 -30 -1 -30 -58 -34 -12 -1 -18
-9 -18 -26 0 -23 4 -25 40 -25 39 0 40 -1 35 -30 -4 -22 0 -32 13 -39 25 -13
39 -1 38 34 0 27 3 30 37 33 32 3 37 7 37 28 0 18 -6 24 -22 25 -52 3 -52 3
-52 42 0 32 -3 37 -23 37 -13 0 -24 -3 -24 -7z"/>
<path d="M2129 1583 c-1 -10 -2 -22 -4 -28 -1 -5 -3 -16 -3 -22 -1 -8 -16 -13
-37 -13 -31 0 -35 -3 -35 -25 0 -22 4 -25 39 -25 38 0 40 -1 39 -31 -1 -17 5
-35 12 -39 23 -14 40 1 40 36 0 32 2 34 34 34 28 0 34 4 38 25 5 26 -5 31 -54
26 -17 -2 -24 24 -19 67 1 7 -9 12 -24 12 -17 0 -25 -6 -26 -17z"/>
<path d="M582 1540 c-49 -35 -53 -50 -14 -50 22 0 30 7 44 40 9 22 15 40 14
40 -2 0 -22 -14 -44 -30z"/>
<path d="M422 1397 c-23 -24 -32 -102 -12 -109 6 -2 -1 -29 -15 -63 -27 -66
-32 -141 -13 -196 17 -51 54 -106 71 -106 13 0 12 8 -5 51 -43 105 -21 300 35
308 34 5 34 36 0 40 -26 3 -28 6 -28 51 1 26 -2 47 -5 47 -4 0 -16 -10 -28
-23z"/>
<path d="M1952 1397 c-9 -10 -8 -18 2 -32 18 -25 48 -13 44 17 -4 27 -30 35
-46 15z"/>
<path d="M2424 1396 c-9 -24 4 -48 23 -44 24 4 24 52 0 56 -9 2 -20 -4 -23
-12z"/>
<path d="M549 1285 c-37 -20 -54 -59 -36 -82 11 -16 47 1 47 22 0 19 36 38 59
30 33 -10 32 -34 -3 -73 -37 -42 -48 -65 -40 -87 9 -22 32 -18 45 8 7 12 27
39 45 60 19 20 34 43 34 50 -1 72 -81 110 -151 72z"/>
<path d="M763 1288 c-10 -12 -8 -147 2 -175 7 -21 32 -15 37 10 2 12 4 56 4
97 -1 60 -4 75 -17 78 -9 1 -20 -3 -26 -10z"/>
<path d="M1337 1294 c-4 -4 -7 -85 -7 -181 0 -130 3 -173 12 -173 7 0 -4 -13
-23 -30 -47 -38 -71 -91 -71 -155 0 -84 41 -141 120 -165 20 -6 44 -14 52 -17
19 -8 27 -10 40 -12 6 -1 10 -55 10 -141 l0 -140 -24 0 c-23 0 -41 -22 -29
-34 4 -3 21 -6 39 -6 l32 0 29 -120 c25 -107 30 -120 50 -120 21 0 21 1 8 58
-8 32 -23 92 -33 133 -16 58 -20 107 -19 232 l0 158 26 14 c14 7 36 24 49 38
31 33 10 47 -28 18 -57 -41 -156 -48 -221 -15 -62 31 -83 122 -46 196 29 56
74 81 144 81 67 0 103 -24 121 -81 12 -36 11 -45 -4 -77 -17 -36 -49 -62 -58
-47 -2 4 2 37 9 72 19 87 19 90 -10 90 -14 0 -25 -5 -25 -12 0 -9 -3 -9 -12 0
-17 17 -69 15 -96 -4 -55 -38 -69 -128 -27 -169 26 -27 54 -31 85 -15 13 7 21
7 25 0 9 -15 52 -12 85 5 15 8 38 31 50 50 30 49 25 133 -11 171 -32 34 -71
54 -108 54 -16 0 -31 4 -33 10 -1 5 -14 11 -28 13 l-25 4 -3 141 -3 141 28 3
c48 5 35 33 -17 36 -25 2 -49 0 -53 -4z m112 -463 c20 -13 18 -74 -3 -105 -22
-35 -63 -35 -72 -1 -8 33 2 71 26 95 22 22 29 24 49 11z"/>
<path d="M1511 1243 c-46 -92 -47 -102 -14 -100 23 2 30 10 43 45 8 23 17 42
21 42 3 0 12 -18 19 -40 13 -39 43 -61 60 -43 5 4 -5 41 -23 80 -26 59 -36 73
-54 73 -18 0 -29 -13 -52 -57z"/>
<path d="M2212 1281 c-4 -11 -6 -90 -6 -176 1 -172 2 -175 61 -175 l31 0 -21
-42 c-31 -63 -31 -186 1 -247 13 -24 22 -44 20 -45 -87 -51 -113 -87 -123
-172 -7 -60 23 -128 72 -160 18 -12 30 -24 27 -27 -3 -2 -7 -18 -8 -33 -2 -16
-7 -28 -12 -27 -5 1 -15 -4 -22 -10 -11 -9 -9 -14 9 -28 19 -14 23 -27 23 -75
1 -56 2 -59 27 -62 26 -3 27 -1 27 50 1 82 1 88 10 87 35 -6 46 25 11 34 -13
4 -19 12 -17 23 2 13 19 21 61 30 31 6 57 10 57 7 0 -10 81 40 95 59 14 20 14
23 0 26 -8 2 -28 -6 -43 -17 -88 -62 -233 -38 -268 45 -43 104 19 208 132 220
95 10 166 -58 143 -138 -9 -33 -55 -85 -66 -74 -3 2 2 39 11 81 9 43 16 79 16
81 0 3 -17 4 -37 3 -21 -1 -47 1 -59 4 -51 13 -111 -47 -116 -115 -2 -35 22
-87 42 -89 6 -1 16 -2 23 -3 6 -1 23 2 36 6 14 5 28 4 36 -2 10 -8 25 -8 52
-1 110 30 139 168 51 247 -27 25 -54 35 -110 38 -46 3 -53 12 -69 86 -14 70
-7 154 19 214 16 34 18 46 8 46 -8 0 -19 6 -25 14 -7 8 -21 13 -32 11 -21 -4
-20 -5 -20 120 0 169 -1 165 24 165 29 0 37 7 30 26 -3 9 -21 14 -49 14 -35 0
-46 -4 -52 -19z m162 -797 c33 -13 12 -117 -26 -130 -47 -14 -66 61 -27 110
22 27 28 30 53 20z"/>
<path d="M2383 1229 c-37 -81 -39 -88 -18 -85 22 3 53 35 59 61 4 15 11 22 19
19 8 -3 20 2 27 11 19 23 -2 65 -32 65 -19 0 -29 -14 -55 -71z"/>
<path d="M2036 1215 c3 -19 2 -35 -3 -36 -4 -1 -21 -2 -38 -3 -25 -1 -30 -5
-30 -26 0 -20 5 -25 27 -25 34 -1 43 -10 43 -43 1 -22 5 -27 25 -27 22 0 25 5
26 35 0 34 1 35 37 33 34 -1 37 1 37 26 0 23 -4 27 -27 26 -39 -2 -52 11 -46
45 4 28 2 30 -26 30 -30 0 -31 -1 -25 -35z"/>
<path d="M1017 1213 c-4 -3 -7 -48 -7 -98 0 -71 4 -96 15 -105 25 -21 38 2 41
74 1 36 5 70 9 76 3 5 21 10 40 10 39 0 52 14 35 35 -16 19 -54 19 -73 0 -13
-13 -16 -13 -21 0 -6 16 -28 20 -39 8z"/>
<path d="M2567 1078 c5 -39 33 -93 57 -110 5 -3 11 -50 12 -104 3 -96 13 -129
34 -108 6 6 13 47 17 92 l6 81 36 -3 c43 -3 52 -27 22 -53 -25 -21 -27 -40 -4
-45 14 -3 17 -16 18 -81 1 -56 5 -81 15 -87 28 -17 40 10 40 91 0 72 2 79 20
79 12 0 20 7 20 16 0 9 -9 18 -20 21 -30 8 -26 43 5 43 15 0 28 7 32 18 4 9
21 30 37 47 30 29 31 30 8 33 -12 2 -29 -3 -37 -11 -25 -26 -85 -40 -142 -34
-80 8 -125 45 -137 109 -6 36 -14 48 -30 48 -10 0 -12 -12 -9 -42z"/>
<path d="M2640 1093 c0 -27 17 -64 34 -75 17 -11 74 -9 81 2 5 8 11 7 21 -1
19 -15 81 -5 106 18 18 16 48 64 48 78 0 3 -9 5 -20 5 -11 0 -20 -5 -20 -10 0
-14 -46 -60 -60 -60 -7 0 -9 12 -4 35 5 31 4 35 -15 35 -13 0 -26 -11 -36 -30
-30 -58 -85 -56 -85 4 0 18 -6 24 -25 24 -20 0 -25 -6 -25 -25z"/>
<path d="M3008 1048 c-3 -61 -6 -73 -19 -70 -20 3 -43 -23 -34 -38 9 -14 78
-13 93 2 7 7 12 44 12 95 0 81 0 83 -25 83 -23 0 -24 -3 -27 -72z"/>
<path d="M3180 1085 c0 -31 3 -35 25 -35 22 0 25 4 25 35 0 31 -3 35 -25 35
-22 0 -25 -4 -25 -35z"/>
<path d="M3335 1092 c4 -50 24 -97 50 -116 32 -24 31 -33 -6 -106 -17 -34 -29
-63 -26 -66 2 -3 14 -6 25 -9 16 -3 24 5 39 41 10 24 21 44 24 44 3 0 12 -18
19 -40 7 -22 16 -40 19 -41 3 0 14 -2 23 -4 29 -5 30 12 3 64 -14 28 -25 54
-25 58 0 5 26 9 59 9 68 0 133 25 156 60 15 23 14 24 -5 24 -12 0 -35 -10 -51
-22 -41 -30 -160 -33 -202 -5 -36 23 -67 74 -67 110 0 20 -5 27 -19 27 -14 0
-18 -6 -16 -28z"/>
<path d="M3410 1087 c0 -44 31 -77 73 -77 18 0 38 5 44 11 8 8 13 8 17 0 22
-35 120 10 143 67 12 30 12 32 -7 32 -11 0 -20 -4 -20 -9 0 -12 -47 -61 -60
-61 -7 0 -10 13 -8 33 2 27 -1 33 -19 35 -16 2 -23 -2 -23 -13 0 -9 -11 -27
-25 -41 -20 -20 -28 -23 -45 -14 -13 7 -20 21 -20 40 0 25 -4 30 -25 30 -22 0
-25 -4 -25 -33z"/>
<path d="M3930 1085 c0 -30 3 -35 24 -35 19 0 25 6 28 30 4 29 -6 40 -38 40
-9 0 -14 -11 -14 -35z"/>
<path d="M4125 1093 c4 -16 9 -39 12 -53 5 -26 22 -42 36 -33 10 6 1 68 -14
95 -5 10 -17 18 -25 18 -13 0 -15 -6 -9 -27z"/>
<path d="M4343 1071 c7 -59 39 -126 67 -141 25 -13 25 -7 0 65 -11 32 -20 72
-20 89 0 27 -4 32 -26 34 -26 2 -27 1 -21 -47z"/>
<path d="M4545 1110 c-8 -13 3 -30 20 -30 11 0 25 20 25 36 0 9 -39 4 -45 -6z"/>
<path d="M4738 1108 c9 -9 15 -9 24 0 9 9 7 12 -12 12 -19 0 -21 -3 -12 -12z"/>
<path d="M4855 1071 c0 -58 15 -81 40 -61 11 9 15 27 13 59 -3 41 -6 46 -28
49 -25 3 -26 1 -25 -47z"/>
<path d="M4980 1066 c0 -36 4 -56 13 -59 25 -9 36 8 39 57 3 47 2 49 -24 53
-28 4 -28 3 -28 -51z"/>
<path d="M5192 1083 c-2 -20 -11 -61 -22 -92 -10 -30 -16 -59 -13 -64 14 -22
77 83 83 138 5 44 0 55 -23 55 -19 0 -23 -6 -25 -37z"/>
<path d="M5299 1098 c-4 -83 1 -152 10 -157 5 -4 -2 -15 -19 -26 -40 -27 -70
-85 -75 -145 -8 -97 40 -157 151 -192 l74 -23 0 -137 0 -138 -24 0 c-53 0 -42
-41 11 -42 30 -1 30 -1 58 -119 25 -108 30 -119 50 -119 l23 0 -34 133 c-31
123 -34 143 -34 295 0 136 2 162 15 162 8 0 30 14 50 32 49 42 27 56 -33 21
-87 -51 -208 -32 -252 39 -17 27 -20 44 -16 87 8 87 63 140 150 146 121 7 183
-108 104 -192 -39 -42 -44 -30 -24 62 20 91 20 85 -8 85 -14 0 -26 -5 -26 -12
0 -9 -3 -9 -12 0 -22 22 -75 14 -109 -16 -27 -24 -33 -37 -37 -84 -4 -50 -2
-57 23 -76 30 -24 56 -27 85 -12 13 7 21 7 25 0 20 -33 113 10 139 64 43 92
-7 196 -103 211 -20 4 -49 14 -66 23 -16 9 -32 15 -35 14 -3 -1 -7 28 -10 65
-4 61 -7 68 -27 71 -18 3 -23 -2 -24 -20z m124 -279 c12 -16 13 -29 5 -57 -13
-50 -30 -66 -62 -58 -23 6 -26 12 -26 47 0 29 7 47 25 64 29 30 40 31 58 4z"/>
<path d="M5834 1106 c-3 -7 -4 -17 -3 -22 5 -26 -2 -115 -8 -111 -5 3 -19 1
-32 -4 -19 -8 -21 -12 -11 -24 14 -16 67 -20 89 -6 13 8 23 137 13 169 -6 16
-41 15 -48 -2z"/>
<path d="M6006 1112 c-2 -4 -3 -18 -2 -32 1 -18 7 -26 24 -28 12 -2 22 0 23 5
0 4 2 18 5 31 2 12 1 22 -4 23 -4 0 -15 2 -24 4 -10 2 -20 0 -22 -3z"/>
<path d="M6179 1108 c-6 -14 -4 -138 2 -155 7 -19 16 -23 47 -23 l39 0 -21
-42 c-13 -28 -22 -68 -24 -114 -4 -61 0 -79 22 -125 14 -30 21 -55 16 -57 -32
-11 -77 -53 -96 -90 -18 -34 -22 -56 -20 -103 3 -66 22 -99 74 -135 22 -15 28
-25 21 -35 -5 -8 -9 -24 -9 -36 0 -16 -6 -23 -20 -23 -11 0 -20 -4 -20 -9 0
-12 30 -35 32 -25 1 5 4 -22 7 -61 6 -71 7 -73 49 -66 5 0 8 28 7 61 -2 56 0
61 22 66 28 7 31 34 4 34 -23 0 -34 25 -18 38 7 5 41 14 76 20 70 13 116 35
139 70 15 22 14 23 -13 18 -15 -3 -35 -12 -44 -20 -39 -35 -145 -40 -203 -10
-91 47 -88 213 4 260 39 20 110 26 149 12 64 -22 89 -111 48 -169 -38 -54 -59
-33 -40 41 25 96 25 91 -16 90 -21 -1 -47 0 -58 1 -55 5 -97 -26 -113 -85 -20
-69 19 -129 76 -120 15 3 36 5 47 4 62 -2 82 1 105 18 39 29 62 80 57 131 -8
77 -66 129 -151 133 -42 3 -50 7 -64 33 -34 65 -21 252 20 303 8 9 5 12 -10
12 -11 0 -22 5 -24 11 -2 6 -15 12 -28 13 -23 1 -25 4 -24 61 0 33 -5 63 -10
67 -11 7 -35 11 -37 6z m171 -633 c16 -20 7 -81 -17 -107 -23 -25 -56 -19 -63
12 -8 35 -1 65 21 89 23 25 42 27 59 6z"/>
<path d="M178 1081 c-13 -18 -14 -29 -6 -52 10 -30 16 -34 34 -21 7 5 7 20 -1
52 l-11 44 -16 -23z"/>
<path d="M253 1044 c-7 -20 22 -45 44 -37 8 3 13 15 11 27 -4 27 -45 35 -55
10z"/>
<path d="M573 1044 c-3 -8 2 -23 11 -32 15 -15 17 -15 32 0 21 21 11 48 -16
48 -11 0 -23 -7 -27 -16z"/>
<path d="M757 1046 c-8 -20 19 -47 39 -39 8 3 14 15 12 27 -4 25 -43 34 -51
12z"/>
<path d="M1713 1044 c-3 -8 2 -23 11 -32 15 -15 17 -15 32 0 21 21 11 48 -16
48 -11 0 -23 -7 -27 -16z"/>
<path d="M3757 1053 c-13 -12 -7 -41 10 -47 21 -9 46 16 37 37 -6 17 -35 23
-47 10z"/>
<path d="M4227 1053 c-12 -11 -7 -41 7 -46 21 -8 50 17 43 37 -6 16 -38 22
-50 9z"/>
<path d="M4547 1053 c-13 -12 -7 -41 10 -47 20 -8 44 19 36 40 -5 14 -35 19
-46 7z"/>
<path d="M4723 1044 c-3 -8 2 -23 11 -32 15 -15 17 -15 32 0 21 21 11 48 -16
48 -11 0 -23 -7 -27 -16z"/>
<path d="M5685 1050 c-10 -16 4 -48 20 -46 23 3 36 21 29 39 -7 19 -39 23 -49
7z"/>
<path d="M6550 1026 c0 -7 12 -26 26 -41 23 -25 26 -37 29 -123 6 -172 51
-143 54 36 1 33 2 33 37 29 19 -3 37 -7 39 -9 10 -10 -9 -47 -26 -51 -22 -6
-16 -37 7 -37 10 0 14 -21 16 -82 3 -81 4 -83 28 -83 24 0 25 3 27 60 0 33 2
70 2 81 1 13 9 24 21 27 26 7 26 27 -1 34 -16 4 -20 12 -16 30 6 31 -34 58
-99 68 -27 4 -58 17 -77 34 -40 34 -67 45 -67 27z"/>
<path d="M160 952 c-14 -2 -28 -7 -33 -11 -12 -12 -11 -331 1 -343 7 -7 6 -21
-6 -44 -12 -25 -13 -37 -5 -45 17 -17 42 -4 53 26 8 22 15 26 42 23 47 -4 49
-35 4 -82 -37 -37 -45 -63 -25 -83 15 -15 39 -5 39 14 0 9 18 35 40 59 22 24
40 53 40 64 0 22 -41 70 -60 70 -6 0 -18 7 -26 15 -9 8 -24 15 -35 15 -18 0
-19 8 -19 140 l0 140 25 0 c14 0 25 5 25 10 0 6 0 13 1 17 1 11 -33 19 -61 15z"/>
<path d="M869 944 c-15 -18 -2 -34 27 -34 l24 0 0 -140 0 -140 -24 0 c-49 0
-39 -39 10 -43 l29 -2 1 -161 2 -160 -46 -13 c-60 -16 -98 -44 -122 -91 -32
-63 -35 -140 -5 -140 7 0 15 20 18 50 12 101 60 145 157 145 73 0 110 -19 128
-68 18 -46 -7 -119 -44 -134 -24 -9 -26 1 -9 71 8 37 15 73 15 80 0 14 -41 16
-51 3 -3 -4 -18 -3 -33 4 -58 27 -132 -47 -124 -124 2 -26 8 -33 29 -35 23 -3
25 0 21 31 -6 48 21 97 54 97 42 0 49 -54 16 -116 -10 -18 -6 -20 59 -22 68
-3 69 -3 89 30 35 57 23 139 -26 184 -13 13 -24 27 -23 31 4 24 -4 33 -26 33
l-25 0 0 144 c0 134 1 144 18 139 24 -6 49 22 30 33 -7 5 -21 9 -30 10 -10 1
-22 2 -28 3 -6 0 -11 69 -12 169 l-3 167 -43 6 c-28 4 -46 1 -53 -7z"/>
<path d="M3240 950 l-25 -6 0 -176 0 -175 -27 8 c-15 4 -35 6 -45 4 -31 -4
-32 3 -8 60 28 71 25 146 -9 221 -22 47 -48 75 -61 63 -2 -2 6 -31 17 -64 25
-74 26 -152 4 -228 -14 -47 -23 -61 -55 -81 -121 -77 -119 -260 3 -323 17 -9
60 -20 96 -24 76 -8 97 -13 106 -22 4 -3 7 -52 7 -107 l0 -101 25 3 c26 3 26
3 27 103 0 55 -3 113 -7 129 -5 20 -3 35 6 45 7 9 16 22 20 29 10 16 -24 11
-55 -9 -53 -35 -140 -41 -203 -15 -67 28 -94 113 -61 192 18 44 35 61 79 79
134 56 252 -64 170 -172 -36 -48 -49 -32 -34 43 6 33 14 67 17 78 4 16 1 18
-28 14 -19 -3 -44 -2 -57 3 -15 6 -35 4 -58 -6 -73 -30 -94 -164 -29 -193 23
-11 55 -9 75 3 6 4 16 3 23 -2 7 -5 18 -8 25 -7 6 1 21 2 31 3 32 2 80 50 92
91 15 51 4 103 -30 143 l-29 32 34 1 c19 0 37 4 40 7 11 10 -17 37 -37 37 -18
0 -19 10 -19 139 l0 140 28 3 c15 2 27 9 27 17 0 18 -41 30 -75 21z m-92 -472
c34 -34 -7 -132 -52 -126 -17 2 -22 11 -24 48 -4 65 42 112 76 78z"/>
<path d="M3699 948 c-17 -7 -19 -11 -9 -22 6 -8 21 -16 33 -18 20 -3 21 -9 21
-141 1 -136 1 -137 -22 -137 -12 0 -26 -8 -29 -17 -5 -14 8 -99 32 -193 24
-100 28 -110 46 -110 24 0 24 -2 -11 142 -17 67 -28 123 -26 125 2 2 14 6 26
8 13 3 26 9 30 14 4 8 6 272 1 332 -1 19 -57 29 -92 17z"/>
<path d="M4123 952 c-22 -2 -33 -9 -34 -20 -7 -103 -2 -328 7 -336 8 -7 6 -18
-4 -36 -17 -30 -11 -60 12 -60 9 0 22 14 31 30 15 29 36 37 69 24 25 -10 19
-33 -19 -75 -32 -36 -45 -76 -29 -92 9 -9 44 11 44 25 0 7 15 28 34 48 54 55
50 111 -9 136 -19 7 -36 18 -40 24 -3 5 -15 10 -26 10 -21 0 -21 -3 -21 135 0
149 0 145 21 145 10 0 24 7 31 15 10 12 9 16 -6 21 -27 10 -26 10 -61 6z"/>
<path d="M292 878 c-18 -40 -32 -76 -32 -79 0 -3 10 -5 23 -4 16 1 28 14 44
45 l21 45 18 -40 c10 -22 19 -41 19 -42 0 -1 13 -4 29 -7 32 -6 32 -8 -12 91
-23 53 -31 63 -53 63 -22 0 -29 -9 -57 -72z"/>
<path d="M585 931 c-50 -23 -79 -55 -95 -105 -24 -76 -11 -148 38 -198 24 -27
25 -28 5 -28 -22 0 -38 -24 -42 -64 0 -7 -10 -16 -21 -19 -23 -6 -17 -37 6
-37 11 0 14 -17 14 -69 0 -82 6 -101 31 -101 17 0 33 31 28 56 -1 5 -1 32 0
60 1 43 4 53 21 57 11 3 20 10 20 17 0 7 -9 14 -20 17 -19 5 -29 42 -12 44 4
0 16 3 27 6 11 3 53 7 93 9 40 2 82 8 92 14 11 6 20 9 20 8 0 -2 9 -30 21 -62
26 -75 26 -156 0 -234 -25 -73 -25 -72 -7 -72 19 0 51 54 68 115 23 80 10 160
-37 230 -25 35 -25 35 -5 55 45 45 6 49 -54 7 -43 -31 -148 -30 -198 1 -67 42
-83 132 -36 210 24 40 65 62 121 66 74 6 132 -31 143 -90 7 -41 0 -65 -31 -98
-32 -35 -45 -26 -34 21 5 21 11 57 15 81 5 40 4 42 -20 42 -14 0 -26 -5 -26
-12 0 -9 -3 -9 -12 0 -24 24 -78 14 -109 -19 -73 -79 -29 -206 61 -172 19 7
32 8 36 1 8 -13 69 -3 100 17 55 36 74 133 37 196 -39 65 -153 89 -238 50z
m99 -106 c29 -30 -4 -125 -44 -125 -20 0 -33 14 -37 40 -4 25 17 79 35 90 23
13 28 12 46 -5z"/>
<path d="M1995 941 c-8 -14 55 -263 71 -280 28 -30 26 19 -6 154 -21 92 -36
135 -45 135 -8 0 -16 -4 -20 -9z"/>
<path d="M2422 934 c-28 -20 -44 -48 -36 -68 10 -25 38 -18 56 14 20 35 61 41
78 11 8 -16 3 -28 -30 -66 -43 -50 -48 -66 -25 -85 16 -13 35 -6 35 14 0 6 18
31 40 54 48 49 52 82 14 117 -32 29 -97 34 -132 9z"/>
<path d="M4262 885 c-38 -78 -40 -96 -9 -92 15 3 29 18 43 48 l21 43 21 -46
c17 -39 24 -46 43 -43 12 2 23 6 24 7 1 2 -12 36 -31 76 -27 59 -37 72 -56 72
-19 0 -30 -13 -56 -65z"/>
<path d="M4554 935 c-68 -30 -119 -130 -107 -208 6 -40 19 -65 52 -101 14 -16
21 -26 14 -22 -17 10 -53 -29 -53 -58 0 -15 -7 -26 -20 -29 -22 -6 -18 -37 6
-37 10 0 14 -21 16 -82 3 -77 5 -83 26 -86 24 -4 24 -6 26 90 1 65 7 83 28 83
23 0 18 25 -7 35 -22 8 -24 13 -15 29 5 11 18 20 28 21 9 0 50 3 90 5 40 3 82
10 93 15 17 10 22 6 40 -35 32 -73 36 -172 10 -251 -24 -69 -22 -86 4 -64 30
25 58 94 63 156 5 69 -8 120 -45 178 l-25 38 21 22 c12 12 21 25 21 29 0 10
-42 -1 -59 -17 -42 -38 -149 -43 -212 -11 -64 34 -85 120 -47 195 30 58 75 84
145 84 64 -1 102 -24 122 -78 12 -32 12 -41 -4 -77 -19 -41 -49 -67 -59 -50
-4 5 1 38 9 73 20 84 19 88 -10 88 -14 0 -25 -5 -25 -10 0 -6 -10 -4 -22 4
-54 34 -138 -36 -138 -116 0 -65 58 -106 110 -78 13 7 21 7 25 0 10 -16 47
-12 84 8 72 39 95 151 44 213 -15 17 -42 38 -60 45 -41 18 -128 17 -169 -1z
m95 -104 c19 -12 16 -77 -4 -107 -20 -31 -61 -32 -70 -3 -11 33 4 87 28 104
25 17 27 18 46 6z"/>
<path d="M4835 941 c-10 -17 4 -31 31 -31 l24 0 0 -139 0 -138 -30 -6 c-18 -4
-30 -13 -30 -22 0 -14 4 -16 52 -19 22 -1 22 -3 23 -163 l1 -162 -38 -6 c-79
-14 -141 -80 -153 -165 -8 -58 0 -90 23 -90 14 0 17 11 17 63 1 74 24 115 79
141 40 19 111 21 145 3 62 -31 81 -110 41 -167 -22 -30 -50 -41 -50 -17 1 6 7
39 15 72 8 33 15 65 15 71 0 12 -42 13 -51 0 -4 -4 -16 -3 -27 3 -31 16 -54
13 -85 -12 -33 -26 -55 -85 -49 -127 4 -27 8 -30 40 -30 28 0 33 3 24 12 -16
16 -15 66 1 98 9 18 21 25 42 25 28 0 30 -3 33 -39 2 -28 -3 -47 -18 -68 l-21
-28 75 0 c68 0 75 2 91 26 37 56 28 140 -20 186 -14 13 -25 33 -25 46 0 17 -6
22 -28 22 l-27 0 0 140 c0 139 0 140 23 140 22 0 41 25 28 37 -3 3 -18 7 -33
8 l-28 1 -5 169 -5 170 -47 3 c-25 2 -49 -2 -53 -7z"/>
<path d="M5963 918 c2 -18 10 -53 17 -78 7 -25 14 -54 16 -65 16 -87 27 -115
45 -115 25 0 25 3 -13 158 -27 111 -35 132 -51 132 -15 0 -18 -6 -14 -32z"/>
<path d="M6378 920 c-32 -33 -34 -63 -3 -68 14 -2 26 8 37 28 14 25 23 31 45
28 43 -5 43 -42 -1 -86 -36 -35 -47 -74 -24 -88 7 -5 20 4 32 21 12 16 30 38
42 49 49 48 53 88 11 126 -14 14 -35 20 -65 20 -35 0 -49 -6 -74 -30z"/>
<path d="M1096 902 c-3 -3 -6 -20 -6 -39 0 -31 -2 -33 -35 -33 -19 0 -35 -3
-36 -7 0 -5 -2 -16 -4 -25 -3 -18 6 -21 58 -21 13 0 17 -8 17 -38 0 -35 3 -39
24 -39 21 0 25 5 28 38 2 30 7 37 23 35 29 -2 55 15 55 37 0 17 -7 20 -39 20
-39 0 -40 1 -43 37 -2 25 -8 37 -20 39 -9 1 -19 -1 -22 -4z"/>
<path d="M1857 902 c-10 -2 -17 -9 -16 -15 6 -47 -1 -57 -36 -57 -32 0 -35 -3
-35 -28 0 -26 3 -28 35 -26 30 3 35 0 36 -19 1 -12 2 -29 3 -37 1 -19 46 -26
47 -8 1 7 2 24 3 38 1 22 6 25 36 25 31 0 35 3 38 28 3 25 1 27 -36 27 -39 0
-40 1 -37 35 2 35 -7 44 -38 37z"/>
<path d="M3923 898 c-4 -7 -8 -21 -9 -30 -1 -10 -2 -22 -3 -28 0 -5 -17 -10
-36 -10 -31 0 -35 -3 -35 -25 0 -25 4 -27 55 -28 17 0 21 -6 20 -36 0 -32 3
-36 25 -36 25 0 26 3 29 52 1 18 7 21 34 20 28 -2 32 1 35 25 3 24 0 27 -35
30 -35 3 -38 5 -38 33 1 40 -25 59 -42 33z"/>
<path d="M5060 870 c0 -37 -1 -39 -37 -42 -29 -2 -37 -8 -39 -25 -4 -23 0 -25
54 -26 19 -1 22 -6 22 -39 0 -34 3 -38 25 -38 23 0 25 4 25 41 0 40 1 41 29
36 31 -7 48 6 48 36 0 13 -9 17 -39 17 -37 0 -38 1 -38 35 0 19 -3 35 -7 36
-5 0 -16 2 -25 4 -15 3 -18 -4 -18 -35z"/>
<path d="M5823 903 c-7 -2 -13 -20 -13 -39 0 -32 -2 -34 -34 -34 -21 0 -36 -6
-40 -15 -10 -27 3 -40 39 -39 34 2 35 1 35 -37 0 -35 3 -39 24 -39 21 0 25 5
28 38 3 32 7 37 28 39 14 0 31 1 38 2 8 1 12 10 10 24 -2 17 -10 23 -40 25
-34 3 -37 5 -40 39 -3 36 -12 46 -35 36z"/>
<path d="M2894 857 c-3 -8 -4 -54 -2 -103 3 -84 4 -89 26 -92 12 -2 22 0 23 5
0 4 2 36 3 70 3 73 17 96 53 87 29 -8 48 13 31 33 -13 16 -60 17 -75 2 -8 -8
-13 -8 -17 0 -10 15 -36 14 -42 -2z"/>
<path d="M6859 833 c-2 -28 -2 -48 0 -130 1 -39 3 -43 26 -43 23 0 25 3 26 53
0 28 2 62 4 73 4 20 -31 74 -48 74 -4 0 -8 -12 -8 -27z"/>
<path d="M41 808 c-6 -17 -4 -25 6 -32 19 -10 33 9 26 35 -7 26 -22 24 -32 -3z"/>
<path d="M1677 709 c-22 -13 -22 -36 1 -48 32 -17 57 24 29 47 -8 7 -18 7 -30
1z"/>
<path d="M2460 705 c-18 -21 -4 -47 22 -43 29 4 35 34 10 47 -15 8 -23 7 -32
-4z"/>
<path d="M2642 706 c-16 -21 -8 -41 18 -41 18 0 26 6 28 21 3 24 -32 40 -46
20z"/>
<path d="M5643 713 c-17 -6 -16 -38 1 -52 11 -9 17 -8 30 4 24 24 2 59 -31 48z"/>
<path d="M6433 713 c-7 -2 -13 -16 -13 -29 0 -19 5 -24 24 -24 30 0 40 24 20
45 -9 8 -16 15 -17 14 -1 0 -8 -3 -14 -6z"/>
<path d="M6615 707 c-23 -17 -14 -47 15 -47 26 0 37 27 18 46 -12 12 -17 12
-33 1z"/>
<path d="M2134 695 c-4 -9 -2 -21 4 -27 16 -16 47 -5 47 17 0 26 -42 34 -51
10z"/>
<path d="M3594 695 c-4 -9 -2 -21 4 -27 16 -16 47 -5 47 17 0 26 -42 34 -51
10z"/>
<path d="M6104 695 c-4 -9 -2 -21 4 -27 16 -16 47 -5 47 17 0 26 -42 34 -51
10z"/>
<path d="M41 592 c-20 -15 -21 -22 -14 -52 l9 -35 19 48 c21 55 17 65 -14 39z"/>
<path d="M377 598 c-17 -9 -18 -19 -13 -96 10 -140 41 -141 51 -2 8 94 -2 119
-38 98z"/>
<path d="M1115 540 c-19 -38 -35 -74 -35 -80 0 -6 12 -10 26 -8 21 2 30 12 44
47 l17 44 19 -46 c16 -40 23 -47 46 -47 31 0 31 0 -16 99 -37 80 -57 79 -101
-9z"/>
<path d="M1828 599 c-9 -6 -13 -53 -14 -172 -1 -163 -1 -163 -32 -227 -27 -53
-32 -75 -32 -132 l0 -69 27 3 c26 3 27 5 24 63 -1 38 5 80 17 115 20 57 17 55
85 59 10 1 17 9 17 21 0 15 -7 20 -27 20 l-28 0 0 137 1 137 27 9 c24 8 38 35
20 38 -29 5 -75 4 -85 -2z"/>
<path d="M2028 598 c-9 -7 -30 -43 -47 -80 l-30 -68 29 0 c25 0 31 6 46 47
l18 47 19 -47 c17 -41 23 -47 48 -47 l29 0 -18 38 c-54 119 -65 132 -94 110z"/>
<path d="M2565 602 c-13 -13 -3 -31 23 -40 l28 -9 -1 -134 c0 -132 0 -134 -23
-137 -33 -5 -36 -22 -12 -91 12 -37 21 -89 21 -127 1 -61 2 -64 25 -64 20 0
24 5 25 33 3 75 -3 111 -26 156 l-24 49 26 0 c14 0 29 6 34 13 14 21 10 337
-4 346 -14 9 -84 12 -92 5z"/>
<path d="M3997 578 c-33 -43 -55 -121 -51 -182 3 -50 47 -154 68 -162 8 -3 1
-17 -19 -39 -33 -34 -56 -100 -50 -145 1 -14 3 -31 4 -37 0 -7 9 -13 19 -13
14 0 17 10 17 58 1 106 68 168 172 160 67 -6 110 -42 116 -100 4 -40 -21 -94
-48 -105 -26 -9 -28 2 -11 76 9 38 16 74 16 79 0 11 -43 10 -51 -2 -4 -4 -16
-3 -29 4 -63 34 -141 -51 -128 -141 2 -19 10 -25 38 -27 28 -3 33 -1 23 9 -33
33 -1 129 43 129 45 0 50 -75 8 -121 -17 -18 -15 -19 60 -19 75 0 77 0 96 33
23 37 26 93 8 134 -36 79 -89 97 -237 81 -21 -3 -27 4 -44 52 -26 73 -25 169
2 240 25 65 14 85 -22 38z"/>
<path d="M4340 595 c-14 -17 -8 -171 7 -186 19 -19 32 11 38 93 5 79 4 88 -14
97 -14 8 -22 7 -31 -4z"/>
<path d="M5113 597 c-4 -7 -22 -42 -40 -79 l-32 -68 29 0 c25 0 31 6 46 47
l18 47 19 -47 c17 -40 24 -47 48 -47 l28 0 -31 68 c-16 37 -34 71 -39 76 -13
15 -38 16 -46 3z"/>
<path d="M5797 599 c-15 -9 -17 -29 -17 -180 0 -152 -2 -174 -19 -197 -22 -31
-47 -116 -45 -152 1 -14 2 -35 3 -47 1 -17 7 -23 24 -23 23 0 24 4 25 68 1 42
9 88 20 118 18 45 22 49 57 52 37 3 37 3 21 -20 -18 -25 -21 -54 -7 -62 15 -9
40 4 46 25 9 28 41 42 65 29 29 -16 24 -42 -15 -80 -26 -25 -35 -42 -33 -60 4
-30 35 -40 44 -13 4 10 23 35 42 55 40 42 47 85 18 117 -22 24 -75 35 -109 22
-21 -8 -26 -7 -30 10 -3 12 -14 19 -29 19 l-25 0 1 135 c1 107 4 138 16 145 8
5 18 6 22 4 9 -6 23 24 15 32 -11 11 -72 13 -90 3z"/>
<path d="M5957 534 c-20 -41 -37 -77 -37 -79 0 -3 13 -5 29 -5 25 0 31 6 46
47 l18 47 17 -45 c15 -37 22 -44 48 -47 l31 -3 -30 63 c-42 89 -43 91 -65 94
-16 3 -27 -12 -57 -72z"/>
<path d="M6547 603 c-26 -7 -17 -37 13 -43 l25 -5 0 -135 -1 -135 -27 -3 c-21
-3 -27 -9 -27 -28 0 -14 7 -38 15 -54 8 -15 18 -54 21 -85 5 -43 10 -55 21
-51 8 4 19 6 25 6 16 0 2 83 -22 129 l-20 41 24 0 c13 0 28 6 33 13 11 13 11
332 0 343 -8 8 -57 12 -80 7z"/>
<path d="M6962 547 c-46 -49 -65 -141 -41 -204 14 -38 29 -13 27 47 -1 53 8
85 33 122 20 27 25 58 11 58 -5 0 -18 -10 -30 -23z"/>
<path d="M1643 543 c-3 -8 -3 -25 -1 -38 5 -23 2 -25 -33 -25 -35 0 -39 -3
-39 -25 0 -22 4 -25 35 -25 30 0 35 -3 36 -25 3 -47 4 -50 26 -51 25 -1 32 11
28 49 -3 25 -1 27 36 27 35 0 39 3 39 24 0 21 -5 25 -37 28 -34 3 -38 6 -39
33 -1 17 -2 33 -3 37 -2 12 -43 4 -48 -9z"/>
<path d="M2788 522 c-3 -35 -5 -37 -40 -40 -33 -3 -38 -7 -38 -28 0 -21 4 -24
41 -24 36 0 40 -3 39 -22 -4 -49 -1 -58 23 -54 17 2 23 10 25 39 3 35 5 37 36
37 25 0 35 5 39 19 6 26 0 31 -39 31 -31 0 -33 3 -36 37 -2 28 -8 37 -25 39
-19 3 -22 -2 -25 -34z"/>
<path d="M3540 520 c0 -40 0 -40 -37 -40 -33 0 -38 -3 -39 -25 -2 -23 2 -25
37 -25 38 0 39 -1 39 -38 0 -33 3 -38 25 -40 23 -2 25 2 25 38 0 40 0 40 38
40 34 0 38 3 38 25 0 22 -4 25 -38 25 -37 0 -38 1 -38 38 0 33 -3 38 -25 40
-23 2 -25 -2 -25 -38z"/>
<path d="M5617 554 c-4 -4 -7 -22 -7 -41 0 -32 -1 -33 -39 -33 -32 0 -39 -3
-36 -17 2 -10 4 -21 4 -25 1 -5 16 -8 35 -8 33 0 35 -2 38 -37 2 -31 7 -38 26
-39 19 -1 22 4 22 37 0 38 1 39 38 39 33 0 38 3 40 24 1 22 -3 25 -36 28 -34
3 -37 6 -42 38 -5 33 -27 50 -43 34z"/>
<path d="M6755 521 c0 -34 -2 -36 -37 -39 -33 -3 -38 -7 -38 -28 0 -21 5 -24
35 -24 19 0 36 -3 36 -7 1 -5 2 -21 3 -38 2 -29 7 -32 45 -26 4 0 8 11 8 24 1
44 3 47 38 47 30 0 35 3 35 24 0 21 -5 25 -37 28 -36 3 -38 5 -38 37 0 30 -3
35 -25 36 -23 2 -26 -2 -25 -34z"/>
<path d="M631 521 c-16 -10 -18 -188 -2 -204 22 -22 41 2 42 50 1 94 13 118
55 108 12 -3 27 1 33 9 9 11 7 17 -10 29 -23 16 -62 14 -68 -4 -2 -6 -9 -5
-20 5 -10 9 -22 12 -30 7z"/>
<path d="M4600 520 c-11 -7 -14 -31 -15 -99 0 -93 10 -119 39 -108 12 5 16 21
16 67 0 81 12 104 51 96 37 -7 52 20 24 40 -19 14 -57 9 -64 -8 -1 -5 -11 -2
-20 6 -11 10 -21 12 -31 6z"/>
<path d="M186 362 c-12 -11 -6 -43 9 -48 22 -9 47 15 36 34 -9 16 -35 24 -45
14z"/>
<path d="M370 355 c-7 -8 -10 -22 -6 -30 7 -19 45 -19 52 0 6 15 -11 45 -26
45 -4 0 -13 -7 -20 -15z"/>
<path d="M1332 361 c-19 -12 -11 -45 12 -49 24 -5 37 17 25 40 -11 20 -18 22
-37 9z"/>
<path d="M3361 357 c-15 -19 10 -53 33 -44 21 8 21 43 0 51 -21 8 -20 8 -33
-7z"/>
<path d="M3842 361 c-20 -12 -10 -46 14 -49 24 -3 39 29 21 47 -13 13 -18 13
-35 2z"/>
<path d="M4155 354 c-15 -15 -15 -19 -1 -32 20 -20 48 -8 44 20 -4 28 -21 33
-43 12z"/>
<path d="M4342 361 c-20 -12 -10 -46 14 -49 25 -4 40 24 23 44 -13 16 -19 17
-37 5z"/>
<path d="M5290 351 c-10 -19 4 -41 27 -41 19 0 36 37 21 47 -23 14 -38 12 -48
-6z"/>
<path d="M364 249 c-8 -13 7 -30 32 -33 15 -2 20 -13 22 -47 3 -43 14 -59 40
-59 16 0 17 121 0 138 -15 15 -84 16 -94 1z"/>
<path d="M1935 245 c-40 -22 -45 -27 -50 -57 -7 -37 23 -47 47 -16 10 13 18
26 18 29 0 13 32 19 51 9 28 -15 23 -38 -17 -82 -22 -25 -34 -47 -32 -61 4
-28 36 -35 45 -10 3 10 24 37 46 61 32 36 38 48 32 70 -14 60 -83 87 -140 57z"/>
<path d="M2141 246 c-7 -8 -10 -35 -7 -67 2 -30 4 -69 5 -86 1 -26 5 -33 21
-33 12 0 20 7 20 18 1 9 3 50 7 91 4 56 2 75 -8 82 -19 12 -25 11 -38 -5z"/>
<path d="M2723 252 c-9 -6 -13 -40 -14 -108 -2 -149 -2 -144 26 -144 24 0 24
1 27 108 2 87 6 107 18 107 24 1 40 15 33 30 -6 16 -69 21 -90 7z"/>
<path d="M2885 190 c-19 -38 -35 -74 -35 -80 0 -6 12 -10 26 -8 21 2 30 13 44
48 l18 45 21 -47 c16 -39 25 -48 46 -48 14 0 25 2 25 5 0 2 -16 38 -35 80 -47
99 -62 100 -110 5z"/>
<path d="M3592 243 c-5 -10 -8 -67 -8 -128 l1 -110 25 0 c25 0 25 1 26 85 2
128 2 126 25 127 27 2 33 8 26 28 -9 22 -84 21 -95 -2z"/>
<path d="M3764 198 c-15 -35 -31 -71 -36 -80 -6 -15 -2 -18 21 -18 25 0 31 6
47 48 l18 47 20 -47 c17 -41 24 -48 48 -48 l28 0 -24 53 c-47 105 -49 107 -71
107 -18 0 -28 -13 -51 -62z"/>
<path d="M4333 245 c-7 -20 1 -28 30 -30 21 -2 22 -5 23 -106 l1 -104 26 -3
27 -3 0 118 c0 79 -4 123 -12 131 -18 18 -87 15 -95 -3z"/>
<path d="M6111 251 c-11 -7 -13 -28 -8 -96 6 -90 16 -116 34 -93 16 19 25 155
13 178 -12 22 -18 24 -39 11z"/>
<path d="M6692 251 c-9 -5 -15 -33 -17 -75 -2 -58 -1 -66 16 -66 22 0 34 17
35 50 1 14 2 33 3 43 0 10 4 16 9 14 4 -3 18 -1 31 4 19 8 21 12 11 24 -13 16
-67 20 -88 6z"/>
<path d="M242 237 c30 -29 81 -60 76 -46 -2 8 -19 24 -38 37 -36 24 -60 30
-38 9z"/>
<path d="M588 173 c-3 -39 -2 -38 -60 -42 -13 -1 -17 -8 -14 -23 2 -18 11 -24
36 -26 18 -2 39 -10 47 -18 19 -18 43 -18 43 0 0 10 13 16 38 18 32 3 37 6 37
28 0 22 -4 25 -38 23 -37 -1 -37 -1 -37 38 0 35 -3 39 -24 39 -21 0 -25 -5
-28 -37z"/>
<path d="M1338 173 c-3 -32 -7 -37 -33 -40 -56 -8 -55 -53 1 -53 32 0 34 -2
34 -34 0 -28 4 -34 25 -38 23 -5 25 -2 25 33 0 36 1 38 38 41 32 3 37 6 37 28
0 22 -4 25 -35 25 -30 0 -35 3 -37 25 0 14 -1 31 -2 38 -1 6 -12 12 -25 12
-21 0 -25 -5 -28 -37z"/>
<path d="M3411 198 c1 -7 1 -25 0 -40 -1 -24 -4 -27 -32 -23 -24 3 -32 -1 -38
-18 -12 -31 -5 -37 38 -37 36 0 37 -1 33 -34 -3 -29 -1 -34 22 -38 28 -6 34 3
31 45 -2 25 1 27 37 27 37 0 39 2 36 28 -3 24 -7 27 -35 25 -19 -1 -34 3 -34
10 -1 7 -3 19 -4 27 -1 8 -3 21 -4 28 0 6 -12 12 -26 12 -15 0 -25 -5 -24 -12z"/>
<path d="M4559 183 c-1 -16 -1 -33 0 -39 1 -6 -11 -11 -26 -12 -51 0 -54 -2
-51 -24 2 -18 11 -24 38 -28 32 -5 35 -8 38 -41 3 -32 6 -36 28 -31 20 3 24
10 24 38 0 31 2 33 38 36 36 3 39 7 33 46 0 4 -17 6 -36 4 -35 -4 -35 -4 -35
37 0 37 -2 41 -25 41 -20 0 -25 -5 -26 -27z"/>
<path d="M5310 170 c0 -34 -3 -39 -22 -38 -50 2 -58 -2 -54 -24 2 -18 10 -24
39 -26 36 -3 37 -5 37 -41 0 -35 2 -38 25 -33 21 4 25 10 25 38 0 31 2 33 37
36 28 2 37 8 39 24 4 23 -21 36 -57 29 -16 -3 -19 2 -19 36 0 35 -3 39 -25 39
-22 0 -25 -4 -25 -40z"/>
<path d="M2397 173 c-4 -3 -7 -44 -7 -90 l0 -83 28 0 c26 0 27 2 26 48 -1 65
10 85 47 80 22 -4 33 0 40 14 8 15 5 20 -16 28 -35 13 -40 13 -56 -6 -11 -14
-13 -14 -21 0 -9 17 -30 21 -41 9z"/>
<path d="M6365 169 c-8 -12 -14 -128 -8 -145 2 -6 15 -9 29 -6 19 3 24 11 24
33 0 52 17 80 48 77 34 -2 53 8 46 26 -8 20 -51 28 -76 15 -17 -9 -23 -9 -26
0 -5 14 -29 14 -37 0z"/>
<path d="M1165 10 c-4 -6 5 -10 20 -10 15 0 24 4 20 10 -8 13 -32 13 -40 0z"/>
<path d="M1640 10 c-12 -8 -9 -10 13 -10 15 0 27 5 27 10 0 13 -20 13 -40 0z"/>
<path d="M1955 10 c-4 -6 5 -10 20 -10 15 0 24 4 20 10 -8 13 -32 13 -40 0z"/>
<path d="M2140 10 c0 -5 12 -10 26 -10 14 0 23 4 19 10 -3 6 -15 10 -26 10
-10 0 -19 -4 -19 -10z"/>
<path d="M3095 10 c-4 -6 5 -10 20 -10 15 0 24 4 20 10 -8 13 -32 13 -40 0z"/>
<path d="M5135 10 c-4 -6 5 -10 20 -10 15 0 24 4 20 10 -3 5 -12 10 -20 10 -8
0 -17 -4 -20 -10z"/>
<path d="M5605 10 c-4 -6 5 -10 20 -10 15 0 24 4 20 10 -3 5 -12 10 -20 10 -8
0 -17 -4 -20 -10z"/>
<path d="M5925 10 c-4 -6 5 -10 20 -10 15 0 24 4 20 10 -3 5 -12 10 -20 10 -8
0 -17 -4 -20 -10z"/>
<path d="M6105 10 c-4 -6 7 -10 27 -10 25 0 29 3 18 10 -19 13 -37 13 -45 0z"/>
</g>
</svg>
